<?xml version="1.0" encoding="utf-8"?>
<!-- Generator: Adobe Illustrator 16.0.0, SVG Export Plug-In . SVG Version: 6.00 Build 0)  -->
<!DOCTYPE svg PUBLIC "-//W3C//DTD SVG 1.1//EN" "http://www.w3.org/Graphics/SVG/1.1/DTD/svg11.dtd">
<svg version="1.1" id="Layer_1" xmlns="http://www.w3.org/2000/svg" xmlns:xlink="http://www.w3.org/1999/xlink" x="0px" y="0px"
	 width="59.82px" height="59.819px" viewBox="0.153 -5.963 59.82 59.819" enable-background="new 0.153 -5.963 59.82 59.819"
	 xml:space="preserve">
<g>
	<g>
		<path fill="#E5E5E5" d="M11.068,23.35c0,0.487-0.395,0.885-0.88,0.885H5.974c-0.485,0-0.88-0.397-0.88-0.885v-4.231
			c0-0.488,0.395-0.884,0.88-0.884h4.214c0.485,0,0.88,0.396,0.88,0.884V23.35z"/>
		<path fill="#E5E5E5" d="M18.399,23.35c0,0.487-0.394,0.885-0.88,0.885h-4.213c-0.486,0-0.88-0.397-0.88-0.885v-4.231
			c0-0.488,0.394-0.884,0.88-0.884h4.213c0.486,0,0.88,0.396,0.88,0.884V23.35z"/>
		<path fill="#E5E5E5" d="M25.73,23.35c0,0.487-0.395,0.885-0.88,0.885h-4.213c-0.486,0-0.88-0.397-0.88-0.885v-4.231
			c0-0.488,0.394-0.884,0.88-0.884h4.213c0.485,0,0.88,0.396,0.88,0.884V23.35z"/>
		<path fill="#E5E5E5" d="M40.394,23.35c0,0.487-0.394,0.885-0.879,0.885h-4.214c-0.485,0-0.881-0.397-0.881-0.885v-4.231
			c0-0.488,0.396-0.884,0.881-0.884h4.214c0.485,0,0.879,0.396,0.879,0.884V23.35z"/>
		<path fill="#E5E5E5" d="M33.063,23.35c0,0.487-0.394,0.885-0.88,0.885h-4.214c-0.486,0-0.88-0.397-0.88-0.885v-4.231
			c0-0.488,0.394-0.884,0.88-0.884h4.214c0.486,0,0.88,0.396,0.88,0.884V23.35z"/>
		<path fill="#E5E5E5" d="M47.726,23.35c0,0.487-0.395,0.885-0.881,0.885h-4.213c-0.486,0-0.88-0.397-0.88-0.885v-4.231
			c0-0.488,0.394-0.884,0.88-0.884h4.213c0.486,0,0.881,0.396,0.881,0.884V23.35z"/>
		<path fill="#E5E5E5" d="M55.058,23.35c0,0.487-0.395,0.885-0.88,0.885h-4.214c-0.485,0-0.881-0.397-0.881-0.885v-4.231
			c0-0.488,0.396-0.884,0.881-0.884h4.214c0.485,0,0.88,0.396,0.88,0.884V23.35z"/>
		<path fill="#E5E5E5" d="M5.974,31.595c-0.485,0-0.88-0.396-0.88-0.883V26.48c0-0.488,0.395-0.883,0.88-0.883h4.214
			c0.485,0,0.88,0.395,0.88,0.883v4.231c0,0.487-0.395,0.883-0.88,0.883H5.974z"/>
		<path fill="#E5E5E5" d="M5.974,38.958c-0.485,0-0.88-0.397-0.88-0.885v-4.229c0-0.489,0.395-0.885,0.88-0.885h4.214
			c0.485,0,0.88,0.396,0.88,0.885v4.229c0,0.487-0.395,0.885-0.88,0.885H5.974z"/>
		<path fill="#E5E5E5" d="M5.974,46.318c-0.485,0-0.88-0.394-0.88-0.883v-4.231c0-0.487,0.395-0.883,0.88-0.883h4.214
			c0.485,0,0.88,0.396,0.88,0.883v4.231c0,0.489-0.395,0.883-0.88,0.883H5.974z"/>
		<path fill="#E5E5E5" d="M49.965,31.595c-0.486,0-0.882-0.396-0.882-0.883V26.48c0-0.488,0.396-0.883,0.882-0.883h4.214
			c0.485,0,0.879,0.395,0.879,0.883v4.231c0,0.487-0.394,0.883-0.879,0.883H49.965z"/>
		<path fill="#E5E5E5" d="M49.965,38.958c-0.486,0-0.882-0.397-0.882-0.885v-4.229c0-0.489,0.396-0.885,0.882-0.885h4.214
			c0.485,0,0.879,0.396,0.879,0.885v4.229c0,0.487-0.394,0.885-0.879,0.885H49.965z"/>
		<path fill="#E5E5E5" d="M49.965,46.318c-0.486,0-0.882-0.394-0.882-0.883v-4.231c0-0.487,0.396-0.883,0.882-0.883h4.214
			c0.485,0,0.879,0.396,0.879,0.883v4.231c0,0.489-0.394,0.883-0.879,0.883H49.965z"/>
		<path fill="#E5E5E5" d="M42.633,31.595c-0.485,0-0.881-0.396-0.881-0.883V26.48c0-0.488,0.396-0.883,0.881-0.883h4.214
			c0.485,0,0.88,0.395,0.88,0.883v4.231c0,0.487-0.395,0.883-0.88,0.883H42.633z"/>
		<path fill="#E5E5E5" d="M42.633,38.958c-0.485,0-0.881-0.397-0.881-0.885v-4.229c0-0.489,0.396-0.885,0.881-0.885h4.214
			c0.485,0,0.88,0.396,0.88,0.885v4.229c0,0.487-0.395,0.885-0.88,0.885H42.633z"/>
		<path fill="#E5E5E5" d="M42.633,46.318c-0.485,0-0.881-0.394-0.881-0.883v-4.231c0-0.487,0.396-0.883,0.881-0.883h4.214
			c0.485,0,0.88,0.396,0.88,0.883v4.231c0,0.489-0.395,0.883-0.88,0.883H42.633z"/>
		<path fill="#E5E5E5" d="M35.302,31.595c-0.485,0-0.881-0.396-0.881-0.883V26.48c0-0.488,0.396-0.883,0.881-0.883h4.214
			c0.485,0,0.879,0.395,0.879,0.883v4.231c0,0.487-0.394,0.883-0.879,0.883H35.302z"/>
		<path fill="#E5E5E5" d="M35.302,38.958c-0.485,0-0.881-0.397-0.881-0.885v-4.229c0-0.489,0.396-0.885,0.881-0.885h4.214
			c0.485,0,0.879,0.396,0.879,0.885v4.229c0,0.487-0.394,0.885-0.879,0.885H35.302z"/>
		<path fill="#E5E5E5" d="M35.302,46.318c-0.485,0-0.881-0.394-0.881-0.883v-4.231c0-0.487,0.396-0.883,0.881-0.883h4.214
			c0.485,0,0.879,0.396,0.879,0.883v4.231c0,0.489-0.394,0.883-0.879,0.883H35.302z"/>
		<path fill="#E5E5E5" d="M27.97,31.595c-0.485,0-0.881-0.396-0.881-0.883V26.48c0-0.488,0.396-0.883,0.881-0.883h4.214
			c0.485,0,0.88,0.395,0.88,0.883v4.231c0,0.487-0.395,0.883-0.88,0.883H27.97z"/>
		<path fill="#E5E5E5" d="M27.97,38.958c-0.485,0-0.881-0.397-0.881-0.885v-4.229c0-0.489,0.396-0.885,0.881-0.885h4.214
			c0.485,0,0.88,0.396,0.88,0.885v4.229c0,0.487-0.395,0.885-0.88,0.885H27.97z"/>
		<path fill="#E5E5E5" d="M27.97,46.318c-0.485,0-0.881-0.394-0.881-0.883v-4.231c0-0.487,0.396-0.883,0.881-0.883h4.214
			c0.485,0,0.88,0.396,0.88,0.883v4.231c0,0.489-0.395,0.883-0.88,0.883H27.97z"/>
		<path fill="#E5E5E5" d="M20.638,31.595c-0.486,0-0.881-0.396-0.881-0.883V26.48c0-0.488,0.396-0.883,0.881-0.883h4.214
			c0.485,0,0.879,0.395,0.879,0.883v4.231c0,0.487-0.394,0.883-0.879,0.883H20.638z"/>
		<path fill="#E5E5E5" d="M20.638,38.958c-0.486,0-0.881-0.397-0.881-0.885v-4.229c0-0.489,0.396-0.885,0.881-0.885h4.214
			c0.485,0,0.879,0.396,0.879,0.885v4.229c0,0.487-0.394,0.885-0.879,0.885H20.638z"/>
		<path fill="#E5E5E5" d="M20.638,46.318c-0.486,0-0.881-0.394-0.881-0.883v-4.231c0-0.487,0.396-0.883,0.881-0.883h4.214
			c0.485,0,0.879,0.396,0.879,0.883v4.231c0,0.489-0.394,0.883-0.879,0.883H20.638z"/>
		<path fill="#E5E5E5" d="M13.306,31.595c-0.486,0-0.881-0.396-0.881-0.883V26.48c0-0.488,0.396-0.883,0.881-0.883h4.214
			c0.485,0,0.879,0.395,0.879,0.883v4.231c0,0.487-0.394,0.883-0.879,0.883H13.306z"/>
		<path fill="#E5E5E5" d="M13.306,38.958c-0.486,0-0.881-0.397-0.881-0.885v-4.229c0-0.489,0.396-0.885,0.881-0.885h4.214
			c0.485,0,0.879,0.396,0.879,0.885v4.229c0,0.487-0.394,0.885-0.879,0.885H13.306z"/>
		<path fill="#E5E5E5" d="M13.306,46.318c-0.486,0-0.881-0.394-0.881-0.883v-4.231c0-0.487,0.396-0.883,0.881-0.883h4.214
			c0.485,0,0.879,0.396,0.879,0.883v4.231c0,0.489-0.394,0.883-0.879,0.883H13.306z"/>
	</g>
	<path fill="#E5E5E5" d="M55.057,2.532c0-0.488-0.394-0.884-0.879-0.884H5.975c-0.485,0-0.881,0.396-0.881,0.884V14.85
		c0,0.489,0.396,0.883,0.881,0.883h48.203c0.485,0,0.879-0.394,0.879-0.883V2.532z"/>
	<line fill="none" stroke="#E5E5E5" stroke-width="0.9224" stroke-miterlimit="10" x1="5.068" y1="49.02" x2="55.005" y2="49.02"/>
	
		<line fill="none" stroke="#E5E5E5" stroke-width="0.9224" stroke-miterlimit="10" x1="5.068" y1="-1.125" x2="55.005" y2="-1.125"/>
</g>
</svg>
