<?xml version="1.0" encoding="utf-8"?>
<!-- Generator: Adobe Illustrator 16.0.0, SVG Export Plug-In . SVG Version: 6.00 Build 0)  -->
<!DOCTYPE svg PUBLIC "-//W3C//DTD SVG 1.1//EN" "http://www.w3.org/Graphics/SVG/1.1/DTD/svg11.dtd">
<svg version="1.1" id="Layer_1" xmlns="http://www.w3.org/2000/svg" xmlns:xlink="http://www.w3.org/1999/xlink" x="0px" y="0px"
	 width="480.221px" height="137.217px" viewBox="0 0 480.221 137.217" style="enable-background:new 0 0 480.221 137.217;"
	 xml:space="preserve">
<style type="text/css">
<![CDATA[
	.st0{fill:#474647;}
	.st1{fill:#5B5C5C;}
	.st2{opacity:0.7;}
]]>
</style>
<rect y="0" class="st0" width="480.221" height="137.217"/>
<g class="st2">
	<polygon class="st1" points="206.446,0 181.359,0 100.305,137.217 125.393,137.217 	"/>
	<polygon class="st1" points="309.631,0 284.545,0 203.49,137.217 228.578,137.217 	"/>
	<polygon class="st1" points="412.82,0 387.73,0 306.676,137.217 331.764,137.217 	"/>
	<polygon class="st1" points="258.04,0 232.952,0 151.897,137.217 176.985,137.217 	"/>
	<polygon class="st1" points="48.711,137.217 73.8,137.217 154.854,0 129.767,0 	"/>
	<polygon class="st1" points="361.225,0 336.137,0 255.083,137.217 280.17,137.217 	"/>
	<polygon class="st1" points="103.261,0 78.173,0 0,132.342 0,137.217 22.207,137.217 	"/>
	<polygon class="st1" points="461.454,137.217 480.221,137.217 480.221,105.448 	"/>
	<polygon class="st1" points="0.077,0 0,0 0,0.13 	"/>
	<polygon class="st1" points="0,45 0,87.47 51.667,0 26.582,0 	"/>
	<polygon class="st1" points="480.221,60.578 480.221,18.106 409.863,137.217 434.95,137.217 	"/>
	<polygon class="st1" points="464.411,0 439.325,0 358.268,137.217 383.357,137.217 	"/>
</g>
</svg>
