<?xml version="1.0" encoding="utf-8"?>
<!-- Generator: Adobe Illustrator 16.0.0, SVG Export Plug-In . SVG Version: 6.00 Build 0)  -->
<!DOCTYPE svg PUBLIC "-//W3C//DTD SVG 1.1//EN" "http://www.w3.org/Graphics/SVG/1.1/DTD/svg11.dtd">
<svg version="1.1" id="Layer_1" xmlns="http://www.w3.org/2000/svg" xmlns:xlink="http://www.w3.org/1999/xlink" x="0px" y="0px"
	 width="55.777px" height="68.39px" viewBox="0 0 55.777 68.39" style="enable-background:new 0 0 55.777 68.39;"
	 xml:space="preserve">
<style type="text/css">
<![CDATA[
	.st0{fill:#ED1F24;}
	.st1{opacity:0.5;fill:#2D2D2D;}
]]>
</style>
<path class="st1" d="M54.137,5.439c1.016,0.586,1.641,1.668,1.641,2.84V65.11c0,1.171-0.625,2.255-1.641,2.841
	c-1.014,0.586-2.266,0.586-3.279,0L1.641,39.535C0.625,38.951,0,37.867,0,36.693c0-1.171,0.625-2.254,1.641-2.839L50.857,5.439
	C51.871,4.853,53.123,4.853,54.137,5.439z"/>
<path class="st0" d="M54.137,0.439c1.016,0.586,1.641,1.669,1.641,2.84v56.832c0,1.171-0.625,2.254-1.641,2.84
	c-1.014,0.586-2.266,0.586-3.279,0L1.641,34.535C0.625,33.951,0,32.868,0,31.693c0-1.17,0.625-2.254,1.641-2.838L50.857,0.439
	C51.871-0.146,53.123-0.146,54.137,0.439z"/>
</svg>
