<?xml version="1.0" encoding="utf-8"?>
<!-- Generator: Adobe Illustrator 16.0.0, SVG Export Plug-In . SVG Version: 6.00 Build 0)  -->
<!DOCTYPE svg PUBLIC "-//W3C//DTD SVG 1.1//EN" "http://www.w3.org/Graphics/SVG/1.1/DTD/svg11.dtd">
<svg version="1.1" id="Layer_1" xmlns="http://www.w3.org/2000/svg" xmlns:xlink="http://www.w3.org/1999/xlink" x="0px" y="0px"
	 width="959.973px" height="169.178px" viewBox="0 0 959.973 169.178" enable-background="new 0 0 959.973 169.178"
	 xml:space="preserve">
<g>
	<path stroke="#000000" stroke-width="7.1773" stroke-miterlimit="10" d="M67.978,53.22h18.35c0.424,0,0.781-0.248,0.996-0.603
		c0.349-0.215,0.598-0.57,0.598-0.99v-8.72c0-8.63-3.349-16.784-9.431-22.961c-0.079-0.08-0.163-0.136-0.249-0.192
		c-0.039-0.056-0.062-0.117-0.112-0.168c-6.175-6.079-14.331-9.43-22.965-9.43h-11.15c-8.607,0-16.747,3.336-22.918,9.397
		c-0.077,0.07-0.123,0.164-0.178,0.257c-0.093,0.051-0.189,0.098-0.263,0.178c-6.059,6.172-9.394,14.312-9.394,22.919v112.904
		c0,0.424,0.251,0.789,0.613,1c0.21,0.364,0.576,0.621,1.007,0.621h18.293c0.43,0,0.796-0.257,1.007-0.621
		c0.361-0.211,0.612-0.576,0.612-1v-39.508h24.698c0.43,0,0.794-0.253,1.005-0.617c0.361-0.215,0.614-0.576,0.614-1.006
		l0.002-18.283c0-0.431-0.251-0.791-0.614-1c-0.21-0.364-0.577-0.623-1.005-0.623H32.796V42.903c0-2.864,1.109-5.607,3.12-7.719
		c0.067-0.07,0.103-0.154,0.151-0.238c0.08-0.042,0.165-0.08,0.235-0.145c2.11-2.014,4.852-3.122,7.718-3.122h11.148
		c2.89,0,5.647,1.122,7.759,3.149c0.058,0.056,0.129,0.084,0.194,0.126c0.041,0.061,0.066,0.135,0.119,0.187
		c2.031,2.117,3.148,4.869,3.148,7.756v8.724c0,0.42,0.247,0.776,0.598,0.991C67.203,52.973,67.557,53.22,67.978,53.22z"/>
	<path stroke="#000000" stroke-width="7.1773" stroke-miterlimit="10" d="M131.614,41.879c-0.21-0.364-0.577-0.622-1.007-0.622
		h-18.291c-0.431,0-0.796,0.252-1.007,0.622c-0.362,0.21-0.613,0.57-0.613,1v81.078c0,2.869-1.107,5.612-3.119,7.724
		c-0.065,0.065-0.1,0.149-0.148,0.229c-0.082,0.047-0.166,0.084-0.237,0.149c-2.11,2.014-4.852,3.121-7.718,3.121
		c-2.868,0-5.612-1.106-7.723-3.121c-0.069-0.065-0.156-0.104-0.237-0.149c-0.047-0.08-0.081-0.164-0.147-0.233
		c-2.01-2.111-3.118-4.851-3.118-7.72V64.411c0-0.43-0.251-0.79-0.612-1c-0.211-0.365-0.577-0.622-1.008-0.622H68.336
		c-0.43,0-0.796,0.252-1.007,0.622c-0.361,0.21-0.612,0.57-0.612,1v59.546c0,8.606,3.337,16.747,9.392,22.92
		c0.068,0.065,0.15,0.093,0.232,0.131c0.057,0.112,0.12,0.224,0.208,0.31c6.175,6.056,14.313,9.396,22.922,9.396
		c8.609,0,16.745-3.341,22.92-9.396c0.062-0.062,0.101-0.146,0.146-0.215c0.105-0.065,0.21-0.141,0.294-0.225
		c6.057-6.173,9.392-14.313,9.392-22.92V42.879C132.229,42.45,131.975,42.09,131.614,41.879z"/>
	<path stroke="#000000" stroke-width="7.1773" stroke-miterlimit="10" d="M232.305,42.459c0-0.309-0.117-0.617-0.352-0.851
		c-0.29-0.29-0.687-0.378-1.06-0.309c-0.05-0.004-0.089-0.042-0.139-0.042h-18.427c-0.05,0-0.087,0.038-0.138,0.042
		c-0.374-0.07-0.771,0.019-1.061,0.309l-0.004,0.005c-0.231,0.233-0.35,0.537-0.35,0.841c0,0.075,0.029,0.149,0.043,0.225
		c-0.007,0.046-0.045,0.093-0.045,0.145v93.082h-39.149c-2.869,0-5.611-1.107-7.721-3.121c-0.07-0.065-0.155-0.103-0.237-0.15
		c-0.048-0.079-0.082-0.159-0.148-0.233c-2.009-2.106-3.117-4.851-3.117-7.715v-8.373h42.354c0.431,0,0.797-0.252,1.008-0.623
		c0.361-0.209,0.612-0.574,0.612-1V74.009c0-8.603-3.338-16.743-9.394-22.915c-0.076-0.08-0.169-0.126-0.26-0.178
		c-0.053-0.093-0.101-0.182-0.177-0.257c-6.172-6.061-14.312-9.397-22.922-9.397c-8.608,0-16.747,3.336-22.92,9.397
		c-0.077,0.075-0.125,0.164-0.178,0.257c-0.09,0.051-0.186,0.098-0.26,0.178c-6.057,6.172-9.392,14.313-9.392,22.915v50.678
		c0,8.603,3.335,16.737,9.392,22.914c0.077,0.075,0.173,0.127,0.263,0.178c0.053,0.09,0.101,0.183,0.178,0.258
		c6.173,6.056,14.312,9.396,22.92,9.396h59.062c0.43,0,0.797-0.257,1.007-0.621c0.361-0.211,0.612-0.576,0.612-1V42.814
		c0-0.051-0.038-0.093-0.045-0.145C232.279,42.599,232.305,42.529,232.305,42.459z M160.41,94.781V74.009
		c0-2.865,1.107-5.603,3.117-7.715c0.068-0.07,0.103-0.154,0.15-0.238c0.08-0.047,0.164-0.08,0.233-0.145
		c4.22-4.028,11.215-4.028,15.441,0c0.069,0.061,0.153,0.103,0.233,0.15c0.048,0.079,0.082,0.164,0.148,0.233
		c2.013,2.107,3.12,4.846,3.12,7.715V94.78L160.41,94.781L160.41,94.781z"/>
	<path stroke="#000000" stroke-width="7.1773" stroke-miterlimit="10" d="M351.873,19.679c-0.049-0.08-0.089-0.164-0.159-0.233
		c-6.157-5.991-14.257-9.29-22.803-9.29c-8.201,0-16,3.056-22.074,8.584c-6.072-5.528-13.875-8.584-22.075-8.584
		c-8.611,0-16.751,3.336-22.922,9.397c-0.077,0.07-0.125,0.168-0.177,0.257c-0.091,0.056-0.187,0.103-0.261,0.178
		c-6.058,6.172-9.396,14.313-9.396,22.919v112.904c0,0.43,0.251,0.793,0.618,1.004c0.213,0.36,0.576,0.617,1.005,0.617h18.29
		c0.431,0,0.792-0.252,1.005-0.617c0.363-0.215,0.617-0.574,0.617-1.004V42.907c0-2.869,1.108-5.607,3.12-7.719
		c0.066-0.07,0.103-0.154,0.151-0.238c0.079-0.047,0.162-0.08,0.235-0.145c2.112-2.014,4.854-3.121,7.723-3.121
		c2.899,0,5.667,1.112,7.796,3.131c0.067,0.065,0.151,0.103,0.228,0.145c0.048,0.084,0.083,0.173,0.153,0.248
		c2.019,2.107,3.132,4.841,3.132,7.701v112.904c0,0.43,0.251,0.789,0.617,1.004c0.213,0.361,0.575,0.617,1.005,0.617h18.292
		c0.43,0,0.79-0.252,1.004-0.617c0.365-0.215,0.617-0.574,0.617-1.004V42.907c0-2.799,1.08-5.495,3.042-7.593
		c0.077-0.084,0.126-0.187,0.175-0.285c0.063-0.042,0.133-0.07,0.187-0.122c2.133-2.08,4.937-3.224,7.902-3.224
		c2.811,0,5.511,1.079,7.614,3.037c0.08,0.075,0.178,0.122,0.276,0.168c0.044,0.065,0.07,0.14,0.126,0.196
		c2.065,2.117,3.206,4.892,3.206,7.822V155.81c0,0.431,0.252,0.795,0.615,1.006c0.212,0.359,0.577,0.617,1.004,0.617h18.292
		c0.43,0,0.794-0.252,1.005-0.617c0.364-0.211,0.617-0.575,0.617-1.006V42.907c0-8.667-3.374-16.85-9.5-23.032
		C352.079,19.792,351.976,19.735,351.873,19.679z"/>
	<path stroke="#000000" stroke-width="7.1773" stroke-miterlimit="10" d="M492.961,96.033c0-0.308-0.121-0.617-0.351-0.851
		c-0.289-0.289-0.691-0.377-1.065-0.309c-0.051-0.009-0.089-0.042-0.143-0.042h-14.985V42.819c0-0.052-0.039-0.094-0.044-0.145
		c0.014-0.07,0.042-0.145,0.042-0.215c0-0.309-0.122-0.617-0.351-0.851c-0.29-0.29-0.688-0.378-1.062-0.309
		c-0.052-0.004-0.089-0.042-0.141-0.042H456.44c-0.051,0-0.09,0.038-0.14,0.042c-0.371-0.07-0.769,0.019-1.058,0.309l-0.005,0.005
		c-0.236,0.233-0.352,0.537-0.352,0.841c0,0.075,0.03,0.149,0.047,0.225c-0.01,0.051-0.047,0.093-0.047,0.145v52.009h-12.732
		c-0.053,0-0.089,0.038-0.141,0.042c-0.377-0.065-0.775,0.019-1.064,0.31l-0.005,0.004c-0.233,0.237-0.352,0.541-0.352,0.846
		c0,0.07,0.03,0.145,0.044,0.215c-0.007,0.051-0.044,0.088-0.044,0.141v18.424c0,0.052,0.037,0.088,0.044,0.14
		c-0.014,0.069-0.044,0.146-0.044,0.215c0,0.308,0.117,0.612,0.352,0.847l0.005,0.004c0.232,0.237,0.537,0.351,0.846,0.351
		c0.074,0,0.145-0.028,0.22-0.048c0.052,0.01,0.088,0.048,0.144,0.048h12.731v19.542h-53.505c-2.864,0-5.609-1.107-7.72-3.122
		c-0.21-0.196-0.477-0.294-0.747-0.313c-0.015-0.019-0.019-0.041-0.035-0.056c-1.946-2.135-3.021-4.874-3.021-7.724v-8.672h41.931
		c0.252,0,0.485-0.084,0.682-0.225c0.147,0.061,0.308,0.098,0.465,0.098c0.154,0,0.313-0.032,0.459-0.092
		c0.445-0.183,0.737-0.623,0.737-1.104V74.019c0-8.603-3.336-16.743-9.396-22.915c-0.072-0.08-0.168-0.126-0.257-0.178
		c-0.053-0.089-0.102-0.182-0.179-0.257c-6.175-6.061-14.313-9.397-22.925-9.397c-8.604,0-16.745,3.336-22.919,9.397
		c-0.075,0.075-0.124,0.168-0.178,0.257c-0.089,0.051-0.182,0.098-0.257,0.178c-6.058,6.172-9.397,14.313-9.397,22.915v50.677
		c0,8.603,3.339,16.738,9.397,22.914c0.075,0.076,0.168,0.127,0.257,0.179c0.054,0.089,0.103,0.183,0.178,0.257
		c6.175,6.057,14.315,9.396,22.919,9.396h73.418c0.436,0,0.8-0.256,1.012-0.621c0.357-0.219,0.61-0.575,0.61-1v-39.452h14.985
		c0.405,0,0.743-0.233,0.96-0.562c0.353-0.215,0.601-0.57,0.601-0.99V96.394c0-0.052-0.037-0.094-0.047-0.146
		C492.933,96.168,492.961,96.103,492.961,96.033z M390.162,94.781V74.009c0-2.865,1.109-5.603,3.121-7.715
		c0.065-0.07,0.103-0.154,0.149-0.238c0.08-0.047,0.164-0.08,0.233-0.145c4.215-4.023,11.215-4.032,15.438,0
		c0.069,0.061,0.154,0.103,0.235,0.145c0.05,0.084,0.082,0.168,0.152,0.243c2.009,2.103,3.119,4.841,3.119,7.71V94.78
		L390.162,94.781L390.162,94.781z"/>
	<path stroke="#000000" stroke-width="7.1773" stroke-miterlimit="10" d="M591.92,42.459c0-0.309-0.116-0.617-0.351-0.851
		c-0.289-0.29-0.688-0.378-1.062-0.309c-0.049-0.004-0.089-0.042-0.138-0.042h-18.425c-0.049,0-0.086,0.038-0.139,0.042
		c-0.374-0.07-0.771,0.019-1.061,0.309l-0.005,0.005c-0.233,0.233-0.352,0.537-0.352,0.841c0,0.075,0.03,0.149,0.048,0.225
		c-0.008,0.051-0.048,0.093-0.048,0.145v39.658c0,0.046,0.04,0.089,0.045,0.14c-0.015,0.075-0.045,0.145-0.045,0.22
		c0,0.308,0.119,0.612,0.352,0.846l0.005,0.004c0.232,0.234,0.537,0.351,0.846,0.351c0.07,0,0.144-0.028,0.215-0.042
		c0.053,0.004,0.09,0.042,0.142,0.042h18.425c0.42,0,0.777-0.248,0.992-0.598c0.33-0.224,0.559-0.556,0.559-0.962v-39.66
		c0-0.051-0.037-0.093-0.044-0.145C591.896,42.604,591.92,42.529,591.92,42.459z"/>
	<path stroke="#000000" stroke-width="7.1773" stroke-miterlimit="10" d="M591.365,96.117c-0.215-0.354-0.57-0.603-0.993-0.603
		h-18.425c-0.42,0-0.777,0.248-0.992,0.603c-0.327,0.219-0.563,0.551-0.563,0.958v58.797c0,0.402,0.236,0.743,0.563,0.958
		c0.215,0.351,0.572,0.603,0.992,0.603h18.425c0.423,0,0.778-0.252,0.993-0.603c0.327-0.22,0.561-0.556,0.561-0.958V97.075
		C591.925,96.668,591.692,96.336,591.365,96.117z"/>
	<path stroke="#000000" stroke-width="7.1773" stroke-miterlimit="10" d="M552.936,47.375c-0.052-0.093-0.103-0.187-0.175-0.262
		c-6.171-6.056-14.309-9.392-22.918-9.392c-8.61,0-16.749,3.336-22.922,9.392c-0.077,0.075-0.124,0.173-0.178,0.262
		c-0.091,0.051-0.188,0.103-0.259,0.178c-6.062,6.177-9.397,14.313-9.397,22.919v85.405c0,0.052,0.037,0.089,0.042,0.14
		c-0.014,0.075-0.042,0.146-0.042,0.221c0,0.309,0.117,0.611,0.352,0.846l0.005,0.005c0.232,0.238,0.537,0.351,0.846,0.351
		c0.07,0,0.14-0.027,0.215-0.041c0.049,0.004,0.089,0.041,0.141,0.041h18.425c0.421,0,0.775-0.248,0.991-0.598
		c0.328-0.22,0.561-0.556,0.561-0.963v-41.33h11.224c2.847,0,5.577,1.112,7.686,3.135c0.071,0.07,0.161,0.112,0.25,0.159
		c0.044,0.075,0.073,0.154,0.14,0.224c2.031,2.146,3.146,4.944,3.146,7.875v29.942c0,0.402,0.234,0.743,0.561,0.958
		c0.215,0.35,0.572,0.604,0.993,0.604h18.424c0.421,0,0.778-0.252,0.993-0.604c0.327-0.22,0.561-0.556,0.561-0.958v-29.938
		c0-8.073-2.913-15.303-8.605-21.508c5.388-5.985,8.605-14.442,8.605-22.813V70.477c0-8.607-3.336-16.747-9.395-22.92
		C553.127,47.478,553.03,47.426,552.936,47.375z M537.53,89.865c-2.107,2.028-4.836,3.145-7.688,3.145H518.62V70.467
		c0-2.864,1.106-5.607,3.121-7.719c0.063-0.07,0.103-0.154,0.146-0.234c0.082-0.047,0.166-0.084,0.236-0.149
		c2.111-2.014,4.853-3.122,7.724-3.122c2.864,0,5.607,1.107,7.721,3.122c0.066,0.065,0.153,0.103,0.232,0.149
		c0.049,0.08,0.084,0.164,0.149,0.234c2.014,2.112,3.121,4.855,3.121,7.719v11.14c0,2.93-1.119,5.73-3.146,7.875
		c-0.061,0.065-0.098,0.149-0.145,0.225C537.689,89.757,537.6,89.795,537.53,89.865z"/>
	<path stroke="#000000" stroke-width="7.1773" stroke-miterlimit="10" d="M740.523,116.112c0-0.309-0.121-0.617-0.354-0.852
		c-0.29-0.289-0.688-0.378-1.061-0.309c-0.051-0.004-0.087-0.042-0.139-0.042h-18.425c-0.052,0-0.089,0.038-0.141,0.042
		c-0.371-0.07-0.77,0.02-1.06,0.309l-0.004,0.006c-0.236,0.232-0.349,0.537-0.349,0.84c0,0.076,0.028,0.149,0.045,0.225
		c-0.008,0.052-0.045,0.089-0.045,0.145v39.658c0,0.047,0.037,0.09,0.042,0.141c-0.014,0.074-0.042,0.145-0.042,0.22
		c0,0.304,0.117,0.612,0.349,0.846l0.004,0.004c0.234,0.234,0.54,0.351,0.845,0.351c0.071,0,0.145-0.027,0.215-0.041
		c0.052,0.004,0.089,0.041,0.143,0.041h18.425c0.42,0,0.778-0.248,0.993-0.603c0.327-0.219,0.562-0.551,0.562-0.958v-39.658
		c0-0.051-0.04-0.093-0.047-0.148C740.493,116.256,740.523,116.183,740.523,116.112z"/>
	<path stroke="#000000" stroke-width="7.1773" stroke-miterlimit="10" d="M873.679,47.375c-0.049-0.093-0.1-0.187-0.175-0.262
		c-6.17-6.056-14.306-9.392-22.917-9.392c-8.61,0-16.75,3.336-22.92,9.392c-0.077,0.075-0.127,0.173-0.178,0.262
		c-0.091,0.051-0.188,0.103-0.263,0.178c-6.059,6.177-9.395,14.313-9.395,22.919v85.405c0,0.052,0.035,0.089,0.042,0.14
		c-0.014,0.075-0.042,0.146-0.042,0.221c0,0.309,0.117,0.611,0.348,0.846l0.006,0.005c0.235,0.238,0.539,0.351,0.846,0.351
		c0.072,0,0.143-0.027,0.215-0.041c0.052,0.004,0.089,0.041,0.141,0.041h18.426c0.42,0,0.776-0.248,0.991-0.598
		c0.33-0.22,0.563-0.556,0.563-0.963v-41.33h11.222c2.849,0,5.576,1.112,7.688,3.135c0.071,0.07,0.161,0.112,0.247,0.159
		c0.047,0.075,0.077,0.154,0.141,0.224c2.032,2.146,3.146,4.944,3.146,7.875v29.942c0,0.402,0.234,0.743,0.563,0.958
		c0.215,0.35,0.569,0.604,0.992,0.604h18.423c0.423,0,0.777-0.252,0.993-0.604c0.329-0.22,0.561-0.556,0.561-0.958v-29.938
		c0-8.073-2.911-15.303-8.604-21.508c5.388-5.985,8.604-14.442,8.604-22.813V70.477c0-8.607-3.334-16.747-9.393-22.92
		C873.869,47.478,873.773,47.426,873.679,47.375z M858.274,89.865c-2.11,2.028-4.84,3.145-7.689,3.145h-11.222V70.467
		c0-2.864,1.106-5.607,3.119-7.719c0.064-0.07,0.103-0.154,0.151-0.234c0.077-0.047,0.161-0.084,0.233-0.149
		c2.108-2.014,4.853-3.122,7.722-3.122c2.866,0,5.609,1.107,7.72,3.122c0.069,0.065,0.153,0.103,0.235,0.149
		c0.049,0.08,0.082,0.164,0.149,0.234c2.012,2.112,3.118,4.855,3.118,7.719v11.14c0,2.93-1.115,5.73-3.145,7.875
		c-0.062,0.065-0.096,0.149-0.144,0.225C858.435,89.757,858.346,89.795,858.274,89.865z"/>
	<path stroke="#000000" stroke-width="7.1773" stroke-miterlimit="10" d="M801.519,47.379c-0.052-0.094-0.101-0.187-0.178-0.262
		c-6.173-6.061-14.313-9.397-22.92-9.397c-8.608,0-16.745,3.336-22.918,9.392c-0.074,0.075-0.121,0.173-0.175,0.262
		c-0.091,0.051-0.188,0.103-0.262,0.178c-6.06,6.172-9.396,14.313-9.396,22.919v54.205c0,8.612,3.336,16.747,9.396,22.921
		c0.074,0.078,0.171,0.125,0.262,0.176c0.054,0.095,0.101,0.188,0.175,0.263c6.173,6.056,14.31,9.397,22.918,9.397
		c8.604,0,16.742-3.342,22.92-9.393c0.077-0.075,0.126-0.173,0.178-0.268c0.094-0.051,0.188-0.098,0.265-0.176
		c6.056-6.178,9.392-14.313,9.392-22.921V70.472c0-8.607-3.336-16.742-9.395-22.915C801.706,47.478,801.61,47.431,801.519,47.379z
		 M786.375,132.634c-0.08,0.047-0.161,0.08-0.234,0.15c-2.11,2.009-4.854,3.117-7.724,3.117c-2.862,0-5.604-1.107-7.715-3.117
		c-0.067-0.065-0.151-0.104-0.235-0.154c-0.047-0.08-0.082-0.164-0.149-0.234c-2.012-2.106-3.118-4.85-3.118-7.719V70.472
		c0-2.869,1.106-5.612,3.118-7.719c0.064-0.07,0.104-0.154,0.149-0.233c0.079-0.052,0.168-0.084,0.238-0.154
		c2.111-2.009,4.85-3.117,7.712-3.117c2.867,0,5.612,1.107,7.722,3.121c0.072,0.065,0.159,0.108,0.243,0.154
		c0.047,0.075,0.079,0.154,0.146,0.225c2.012,2.112,3.118,4.85,3.118,7.719v54.209c0,2.864-1.106,5.607-3.118,7.719
		C786.456,132.466,786.421,132.55,786.375,132.634z"/>
	<path stroke="#000000" stroke-width="7.1773" stroke-miterlimit="10" d="M702.375,102.701c-0.051-0.084-0.093-0.173-0.163-0.243
		c-6.121-6.004-14.173-9.309-22.668-9.309c-2.946,0-5.757-1.116-7.918-3.145c-0.067-0.064-0.151-0.098-0.23-0.145
		c-0.047-0.084-0.085-0.168-0.153-0.243c-2.035-2.107-3.154-4.837-3.154-7.678V71.107c0-2.869,1.107-5.607,3.119-7.719
		c0.063-0.07,0.103-0.154,0.151-0.234c0.076-0.047,0.16-0.084,0.233-0.149c2.109-2.014,4.851-3.122,7.714-3.122
		c2.867,0,5.607,1.107,7.716,3.117c0.069,0.065,0.153,0.103,0.235,0.15c0.049,0.084,0.084,0.168,0.151,0.238
		c2.01,2.112,3.119,4.85,3.119,7.719v2.537c0,0.444,0.25,0.841,0.638,1.047c0.225,0.299,0.533,0.519,0.916,0.519h18.425
		c0.376,0,0.675-0.215,0.897-0.5c0.005,0,0.007,0,0.014,0c0.396-0.206,0.646-0.617,0.646-1.061v-2.542
		c0-8.607-3.337-16.742-9.396-22.915c-0.072-0.08-0.168-0.126-0.26-0.178c-0.055-0.093-0.102-0.187-0.178-0.262
		c-6.173-6.056-14.311-9.396-22.916-9.396c-8.604,0-16.738,3.341-22.911,9.396c-0.08,0.075-0.126,0.168-0.179,0.262
		c-0.094,0.051-0.187,0.098-0.262,0.178c-6.059,6.173-9.396,14.308-9.396,22.915v10.832c0,8.594,3.354,16.72,9.442,22.888
		c0.063,0.064,0.151,0.098,0.236,0.145c0.058,0.107,0.116,0.215,0.203,0.299c6.219,6.065,14.425,9.412,23.105,9.412
		c2.81,0,5.478,1.064,7.515,3c0.079,0.074,0.173,0.116,0.267,0.168c0.042,0.064,0.07,0.14,0.126,0.2
		c1.99,2.089,3.086,4.874,3.086,7.841s-1.156,5.771-3.261,7.894c-0.05,0.051-0.073,0.116-0.112,0.168
		c-0.104,0.051-0.213,0.103-0.304,0.182c-2.1,1.921-4.775,2.978-7.54,2.978h-47.008c-3.02,0-5.856-1.196-7.99-3.364
		c-0.047-0.047-0.107-0.065-0.154-0.106c-0.051-0.113-0.104-0.225-0.19-0.318c-1.859-2.084-2.887-4.725-2.887-7.43V71.112
		c0-2.869,1.11-5.607,3.119-7.72c0.065-0.065,0.104-0.149,0.15-0.233c0.081-0.047,0.168-0.084,0.238-0.149
		c2.11-2.009,4.853-3.122,7.717-3.122l9.771,0.023h0.002c0.02,0,0.038,0,0.048,0c0.485,0,0.896-0.294,1.089-0.706
		c0.245-0.225,0.426-0.505,0.426-0.851V39.931c0-0.374-0.211-0.673-0.496-0.897c-0.004-0.004,0-0.009-0.004-0.014
		c-0.206-0.392-0.612-0.64-1.057-0.64l-9.772-0.023c-8.604,0-16.745,3.341-22.918,9.396c-0.077,0.07-0.124,0.168-0.178,0.257
		c-0.089,0.056-0.188,0.103-0.263,0.177c-6.058,6.178-9.396,14.317-9.396,22.925v54.776c0,8.434,3.238,16.465,9.111,22.605
		c0.062,0.064,0.143,0.104,0.216,0.154c0.056,0.106,0.114,0.22,0.205,0.309c6.203,6.247,14.453,9.688,23.224,9.688h47.008
		c8.502,0,16.569-3.276,22.725-9.22c0.063-0.062,0.103-0.146,0.15-0.22c0.11-0.053,0.221-0.117,0.31-0.206
		c6.17-6.187,9.566-14.397,9.566-23.11c0-8.646-3.341-16.813-9.405-22.996C702.576,102.81,702.479,102.752,702.375,102.701z"/>
	<path stroke="#000000" stroke-width="7.1773" stroke-miterlimit="10" d="M934.371,77.121h9.271c0.107,0,0.201-0.037,0.3-0.061
		c0.099,0.028,0.195,0.061,0.299,0.061h9.271c0.664,0,1.196-0.537,1.196-1.196v-3.864c0-8.607-3.336-16.742-9.393-22.915
		c-0.074-0.075-0.173-0.126-0.262-0.178c-0.052-0.088-0.103-0.187-0.178-0.262c-6.173-6.056-14.313-9.392-22.925-9.392
		c-8.604,0-16.737,3.336-22.906,9.392c-0.075,0.075-0.126,0.168-0.176,0.257c-0.093,0.051-0.188,0.103-0.267,0.182
		c-6.059,6.168-9.395,14.308-9.395,22.915v54.205c0,9.07,3.661,17.519,10.308,23.789c0.084,0.08,0.186,0.131,0.283,0.184
		c0.053,0.084,0.1,0.173,0.177,0.242c6.061,5.51,13.863,8.543,21.979,8.543c8.117,0,15.925-3.039,21.984-8.547
		c0.075-0.064,0.121-0.154,0.174-0.233c0.103-0.052,0.206-0.103,0.295-0.187c6.64-6.275,10.303-14.725,10.303-23.789v-31.41
		c0-0.431-0.252-0.795-0.616-1.006c-0.216-0.363-0.575-0.617-1.005-0.617h-30.308c-0.053,0-0.09,0.039-0.141,0.043
		c-0.374-0.07-0.775,0.019-1.064,0.309l-0.006,0.004c-0.232,0.234-0.351,0.538-0.351,0.842c0,0.074,0.028,0.145,0.047,0.219
		c-0.01,0.052-0.047,0.09-0.047,0.141v18.424c0,0.053,0.037,0.09,0.047,0.141c-0.019,0.07-0.047,0.141-0.047,0.215
		c0,0.305,0.117,0.613,0.351,0.847l0.006,0.004c0.232,0.233,0.537,0.351,0.846,0.351c0.074,0,0.145-0.027,0.22-0.047
		c0.051,0.01,0.088,0.047,0.146,0.047h10.383l0.01,11.5c0,3.215-1.436,6.295-3.935,8.459c-0.065,0.056-0.107,0.14-0.159,0.209
		c-0.089,0.043-0.184,0.07-0.262,0.137c-4.037,3.164-9.683,3.168-13.725,0.004c-0.08-0.061-0.169-0.094-0.257-0.135
		c-0.052-0.07-0.094-0.154-0.164-0.215c-2.5-2.154-3.935-5.238-3.935-8.459V72.065c0-2.865,1.106-5.612,3.116-7.72
		c0.065-0.07,0.104-0.149,0.149-0.233c0.079-0.047,0.163-0.08,0.238-0.149c2.106-2.009,4.846-3.117,7.715-3.117
		c2.864,0,5.606,1.107,7.719,3.117c0.07,0.07,0.154,0.103,0.238,0.154c0.047,0.079,0.08,0.159,0.149,0.233
		c2.01,2.107,3.116,4.85,3.116,7.715v3.864C933.174,76.588,933.711,77.121,934.371,77.121z"/>
</g>
<polygon fill="#545454" points="13.064,154.573 31.357,154.573 22.21,145.428 "/>
<polygon fill="#CECACA" stroke="#CECACA" stroke-miterlimit="10" points="58.099,94.743 48.956,103.888 58.097,113.022 "/>
<polygon fill="#CECACA" stroke="#CECACA" stroke-miterlimit="10" points="22.509,104.606 22.509,144.882 22.634,145.003 
	31.78,154.151 31.78,113.878 "/>
<polygon fill="#F7F7F7" stroke="#F7F7F7" stroke-miterlimit="10" points="48.386,103.547 57.676,94.317 32.191,94.317 
	28.586,97.869 22.854,103.547 "/>
<polygon fill="#545454" points="57.674,113.453 48.386,104.224 22.854,104.224 30.883,112.13 32.221,113.453 "/>
<polygon fill="#545454" points="86.507,50.365 77.334,41.188 68.157,50.365 "/>
<path fill="#F7F7F7" stroke="#F7F7F7" stroke-miterlimit="10" d="M29.02,25.646c3.983-3.72,9.312-6.019,15.177-6.019h11.149
	c5.89,0,11.245,2.304,15.225,6.051l6.9-6.902c-5.698-5.612-13.51-9.088-22.125-9.088H44.197c-8.591,0-16.385,3.458-22.08,9.051
	L29.02,25.646z"/>
<path fill="#CECACA" stroke="#CECACA" stroke-miterlimit="10" d="M70.918,26.025c3.833,3.766,6.321,8.897,6.651,14.602l9.335,9.341
	v-8.724c0-8.612-3.477-16.416-9.086-22.121L70.918,26.025z"/>
<path fill="#8E8E8E" stroke="#8E8E8E" stroke-miterlimit="10" d="M21.691,19.165c-5.588,5.696-9.051,13.49-9.051,22.079v112.903
	l9.147-9.145l0.124-0.126V41.917c0-6.21,2.555-11.827,6.664-15.869L21.691,19.165z"/>
<path fill="#545454" d="M35.654,32.277c2.23-2.121,5.228-3.444,8.543-3.444h11.149c3.335,0,6.354,1.336,8.589,3.486l6.213-6.219
	c-3.874-3.635-9.075-5.874-14.802-5.874H44.197c-5.701,0-10.88,2.233-14.756,5.841L35.654,32.277z"/>
<path fill="#8E8E8E" stroke="#8E8E8E" stroke-miterlimit="10" d="M67.765,41.249v8.724l9.213-9.21
	C76.679,35.165,74.25,30.137,70.5,26.45l-6.216,6.215C66.427,34.898,67.765,37.917,67.765,41.249z"/>
<path fill="#CECACA" stroke="#CECACA" stroke-miterlimit="10" d="M28.995,26.469c-3.998,3.939-6.486,9.406-6.486,15.448v61.182
	l9.271-9.271V41.249c0-3.317,1.326-6.317,3.449-8.542L28.995,26.469z"/>
<polygon fill="#F7F7F7" stroke="#F7F7F7" stroke-miterlimit="10" points="112.499,40.795 121.645,49.94 130.79,40.795 "/>
<polygon fill="#F7F7F7" stroke="#F7F7F7" stroke-miterlimit="10" points="68.521,62.327 77.67,71.472 86.815,62.327 "/>
<path fill="#CECACA" stroke="#CECACA" stroke-miterlimit="10" d="M90.687,130.835c-2.125-2.229-3.447-5.229-3.447-8.542V62.748
	l-9.271,9.271v50.943c0,5.701,2.228,10.878,5.837,14.756L90.687,130.835z"/>
<path fill="#8E8E8E" stroke="#8E8E8E" stroke-miterlimit="10" d="M115.506,137.718c3.609-3.874,5.837-9.056,5.837-14.756V50.487
	l-9.271-9.271v81.078c0,3.318-1.325,6.318-3.45,8.547L115.506,137.718z"/>
<path fill="#F7F7F7" stroke="#F7F7F7" stroke-miterlimit="10" d="M108.202,131.261c-2.229,2.127-5.227,3.448-8.543,3.448
	c-3.315,0-6.319-1.321-8.548-3.448l-6.903,6.901c3.938,4.005,9.408,6.495,15.451,6.495c6.041,0,11.51-2.49,15.446-6.49
	L108.202,131.261z"/>
<path fill="#CECACA" stroke="#CECACA" stroke-miterlimit="10" d="M122.163,144.377c5.588-5.696,9.05-13.489,9.05-22.083V41.216
	l-9.271,9.271v72.475c0,5.869-2.294,11.196-6.012,15.182L122.163,144.377z"/>
<path fill="#8E8E8E" stroke="#8E8E8E" stroke-miterlimit="10" d="M83.382,138.144c-3.717-3.985-6.014-9.313-6.014-15.182V72.019
	l-9.271-9.271v59.545c0,8.593,3.461,16.388,9.05,22.083L83.382,138.144z"/>
<path fill="#545454" d="M115.525,138.587c-4.043,4.112-9.662,6.668-15.869,6.668c-6.209,0-11.826-2.556-15.871-6.668l-6.213,6.215
	c5.696,5.588,13.491,9.051,22.082,9.051c8.591,0,16.386-3.463,22.08-9.051L115.525,138.587z"/>
<path fill="#545454" d="M222.022,145.728v0.248h-50.214c-6.207,0-11.825-2.556-15.868-6.662l-6.215,6.213
	c5.696,5.59,13.488,9.052,22.083,9.052h59.062L222.022,145.728z"/>
<path fill="#F7F7F7" stroke="#F7F7F7" stroke-miterlimit="10" d="M171.808,145.377h49.616v-0.248l-9.694-9.696h-39.922
	c-3.316,0-6.316-1.322-8.547-3.443l-6.899,6.9C160.3,142.886,165.766,145.377,171.808,145.377z"/>
<path fill="#CECACA" stroke="#CECACA" stroke-miterlimit="10" d="M159.394,72.351c0-3.313,1.325-6.313,3.447-8.537l-6.232-6.233
	c-3.999,3.939-6.486,9.406-6.486,15.443v30.125l9.271-9.271V72.351L159.394,72.351z"/>
<path fill="#545454" d="M163.264,63.383c2.23-2.122,5.23-3.444,8.546-3.444c3.315,0,6.315,1.322,8.545,3.444l6.213-6.21
	c-3.876-3.612-9.056-5.836-14.756-5.836c-5.704,0-10.884,2.229-14.756,5.836L163.264,63.383z"/>
<path fill="#8E8E8E" stroke="#8E8E8E" stroke-miterlimit="10" d="M187.012,57.575l-6.232,6.233c2.124,2.229,3.449,5.229,3.449,8.537
	v21.528l9.271,9.271V73.019C193.5,66.977,191.012,61.514,187.012,57.575z"/>
<polygon fill="#F7F7F7" stroke="#F7F7F7" stroke-miterlimit="10" points="159.805,94.317 150.546,103.575 193.076,103.575 
	183.818,94.317 "/>
<path fill="#F7F7F7" stroke="#F7F7F7" stroke-miterlimit="10" d="M156.627,56.753c3.983-3.72,9.314-6.014,15.181-6.014
	c5.868,0,11.196,2.294,15.182,6.014l6.903-6.902c-5.697-5.593-13.492-9.051-22.084-9.051c-8.592,0-16.386,3.458-22.083,9.051
	L156.627,56.753z"/>
<path fill="#CECACA" stroke="#CECACA" stroke-miterlimit="10" d="M187.432,57.155c4.107,4.042,6.664,9.658,6.664,15.864v30.744
	l9.271,9.271V72.351c0-8.593-3.462-16.383-9.051-22.079L187.432,57.155z"/>
<path fill="#8E8E8E" stroke="#8E8E8E" stroke-miterlimit="10" d="M156.185,57.155l-6.88-6.883
	c-5.589,5.696-9.051,13.49-9.051,22.079v50.677c0,8.593,3.462,16.383,9.051,22.078l6.234-6.232
	c-3.717-3.98-6.014-9.313-6.014-15.178V73.023C149.521,66.813,152.077,61.196,156.185,57.155z"/>
<polygon fill="#8E8E8E" stroke="#8E8E8E" stroke-miterlimit="10" points="212.153,135.013 221.424,144.284 221.424,50.431 
	212.153,41.155 "/>
<polygon fill="#CECACA" stroke="#CECACA" stroke-miterlimit="10" points="212.153,40.795 212.153,40.8 212.158,40.795 "/>
<polygon fill="#CECACA" stroke="#CECACA" stroke-miterlimit="10" points="231.289,40.795 231.293,40.8 231.293,40.795 "/>
<polygon fill="#F7F7F7" stroke="#F7F7F7" stroke-miterlimit="10" points="212.51,40.795 221.723,50.005 230.937,40.795 "/>
<polygon fill="#CECACA" stroke="#CECACA" stroke-miterlimit="10" points="222.022,144.882 231.293,154.151 231.293,41.155 
	222.022,50.426 "/>
<path fill="#545454" d="M284.943,20.226c-5.701,0-10.883,2.233-14.756,5.841l6.211,6.21c2.232-2.121,5.232-3.444,8.545-3.444
	c3.346,0,6.374,1.327,8.62,3.458l6.214-6.215C295.882,22.464,290.675,20.226,284.943,20.226z"/>
<path fill="#545454" d="M329.091,20.226c-5.787,0-11.039,2.275-14.943,5.953l6.208,6.21c2.254-2.196,5.334-3.556,8.735-3.556
	c3.262,0,6.212,1.29,8.427,3.351l6.217-6.22C339.871,22.413,334.738,20.226,329.091,20.226z"/>
<path fill="#F7F7F7" stroke="#F7F7F7" stroke-miterlimit="10" d="M306.716,18.394c-5.678-5.387-13.336-8.705-21.775-8.705
	c-8.593,0-16.388,3.458-22.083,9.051l6.903,6.901c3.986-3.715,9.316-6.014,15.182-6.014c10.594,0,19.474,7.374,21.777,17.238V18.394
	H306.716z"/>
<path fill="#F7F7F7" stroke="#F7F7F7" stroke-miterlimit="10" d="M329.091,9.694c-8.437,0-16.1,3.317-21.777,8.7V36.87
	c2.308-9.864,11.188-17.238,21.779-17.238c5.813,0,11.098,2.252,15.065,5.916l6.902-6.902
	C345.378,13.109,337.63,9.694,329.091,9.694z"/>
<path fill="#CECACA" stroke="#CECACA" stroke-miterlimit="10" d="M263.253,144.882l9.271,9.271V41.249
	c0-3.313,1.326-6.313,3.45-8.542l-6.232-6.229c-3.998,3.939-6.485,9.402-6.485,15.443v102.96L263.253,144.882L263.253,144.882z"/>
<path fill="#8E8E8E" stroke="#8E8E8E" stroke-miterlimit="10" d="M262.655,144.882V41.917c0-6.206,2.556-11.822,6.663-15.869
	l-6.883-6.878c-5.588,5.691-9.051,13.485-9.051,22.079v112.904L262.655,144.882z"/>
<polygon fill="#545454" points="272.099,154.573 262.952,145.428 253.809,154.573 "/>
<path fill="#CECACA" stroke="#CECACA" stroke-miterlimit="10" d="M351.373,144.882l9.271,9.271V41.249
	c0-8.645-3.5-16.49-9.149-22.191l-6.893,6.893c4.168,4.051,6.771,9.71,6.771,15.967V144.882z"/>
<polygon fill="#545454" points="360.223,154.573 351.074,145.428 341.929,154.573 "/>
<path fill="#8E8E8E" stroke="#8E8E8E" stroke-miterlimit="10" d="M341.504,154.151l9.271-9.271V41.917
	c0-6.093-2.535-11.603-6.598-15.546l-6.217,6.224c2.187,2.238,3.544,5.29,3.544,8.654V154.151L341.504,154.151z"/>
<path fill="#CECACA" stroke="#CECACA" stroke-miterlimit="10" d="M316.584,154.151V41.249c0-3.252,1.294-6.196,3.364-8.411
	l-6.248-6.252c-3.944,3.93-6.387,9.35-6.387,15.332v102.965L316.584,154.151z"/>
<path fill="#8E8E8E" stroke="#8E8E8E" stroke-miterlimit="10" d="M297.446,154.151l9.27-9.271V41.917
	c0-6.033-2.491-11.495-6.5-15.43l-6.231,6.233c2.134,2.225,3.461,5.22,3.461,8.528V154.151L297.446,154.151z"/>
<polygon fill="#545454" points="316.164,154.573 307.015,145.428 297.873,154.573 "/>
<path fill="#545454" d="M466.13,145.728v0.248h-64.57c-6.205,0-11.818-2.556-15.866-6.662l-6.215,6.213
	c5.696,5.59,13.488,9.052,22.079,9.052h73.418L466.13,145.728z"/>
<path fill="#F7F7F7" stroke="#F7F7F7" stroke-miterlimit="10" d="M401.56,145.377h63.974v-0.248l-9.696-9.696h-54.278
	c-3.314,0-6.316-1.322-8.542-3.443l-6.901,6.9C390.049,142.886,395.521,145.377,401.56,145.377z"/>
<path fill="#CECACA" stroke="#CECACA" stroke-miterlimit="10" d="M389.147,72.351c0-3.313,1.325-6.313,3.446-8.537l-6.231-6.233
	c-4,3.939-6.486,9.406-6.486,15.443v30.125l9.271-9.271V72.351L389.147,72.351z"/>
<path fill="#545454" d="M393.021,63.383c2.229-2.122,5.229-3.444,8.544-3.444c3.314,0,6.314,1.322,8.544,3.444l6.213-6.21
	c-3.876-3.612-9.055-5.836-14.757-5.836c-5.706,0-10.883,2.229-14.759,5.836L393.021,63.383z"/>
<path fill="#8E8E8E" stroke="#8E8E8E" stroke-miterlimit="10" d="M416.763,57.575l-6.23,6.233c2.129,2.229,3.451,5.229,3.451,8.537
	v21.528l9.271,9.271V73.019C423.253,66.977,420.763,61.514,416.763,57.575z"/>
<polygon fill="#F7F7F7" stroke="#F7F7F7" stroke-miterlimit="10" points="389.558,94.317 380.299,103.575 422.833,103.575 
	413.572,94.317 "/>
<path fill="#F7F7F7" stroke="#F7F7F7" stroke-miterlimit="10" d="M386.383,56.753c3.981-3.72,9.315-6.014,15.177-6.014
	c5.869,0,11.198,2.294,15.186,6.014l6.901-6.902c-5.696-5.593-13.49-9.051-22.084-9.051c-8.59,0-16.382,3.458-22.079,9.051
	L386.383,56.753z"/>
<path fill="#CECACA" stroke="#CECACA" stroke-miterlimit="10" d="M417.186,57.155c4.107,4.042,6.661,9.658,6.661,15.864v30.744
	l9.271,9.271V72.351c0-8.593-3.46-16.383-9.049-22.079L417.186,57.155z"/>
<path fill="#8E8E8E" stroke="#8E8E8E" stroke-miterlimit="10" d="M385.942,57.155l-6.883-6.883
	c-5.589,5.696-9.051,13.49-9.051,22.079v50.677c0,8.593,3.462,16.383,9.051,22.078l6.231-6.232
	c-3.722-3.98-6.016-9.313-6.016-15.178V73.023C379.274,66.813,381.832,61.196,385.942,57.155z"/>
<polygon fill="#CECACA" stroke="#CECACA" stroke-miterlimit="10" points="456.262,40.795 456.262,40.8 456.266,40.795 "/>
<polygon fill="#CECACA" stroke="#CECACA" stroke-miterlimit="10" points="475.397,40.795 475.401,40.8 475.401,40.795 "/>
<polygon fill="#F7F7F7" stroke="#F7F7F7" stroke-miterlimit="10" points="456.622,40.795 465.832,50.005 475.043,40.795 "/>
<polygon fill="#CECACA" stroke="#CECACA" stroke-miterlimit="10" points="491.948,94.365 491.943,94.365 491.948,94.37 "/>
<polygon fill="#CECACA" stroke="#CECACA" stroke-miterlimit="10" points="491.948,113.5 491.943,113.504 491.948,113.504 "/>
<polygon fill="#CECACA" stroke="#CECACA" stroke-miterlimit="10" points="491.948,113.149 491.948,94.726 482.733,103.935 "/>
<polygon fill="#CECACA" stroke="#CECACA" stroke-miterlimit="10" points="441.968,94.37 441.972,94.365 441.968,94.365 "/>
<polygon fill="#CECACA" stroke="#CECACA" stroke-miterlimit="10" points="441.968,113.504 441.972,113.504 441.968,113.5 "/>
<polygon fill="#8E8E8E" stroke="#8E8E8E" stroke-miterlimit="10" points="441.968,94.726 441.968,113.149 451.182,103.935 "/>
<polygon fill="#545454" points="465.098,104.233 451.603,104.233 442.333,113.504 455.828,113.504 "/>
<polygon fill="#8E8E8E" stroke="#8E8E8E" stroke-miterlimit="10" points="456.262,113.938 456.262,135.013 465.533,144.284 
	465.533,104.668 "/>
<polygon fill="#545454" points="475.833,113.504 491.583,113.504 482.313,104.233 466.563,104.233 "/>
<polygon fill="#CECACA" stroke="#CECACA" stroke-miterlimit="10" points="466.13,104.673 466.13,144.882 475.401,154.151 
	475.401,113.942 "/>
<polygon fill="#CECACA" stroke="#CECACA" stroke-miterlimit="10" points="475.401,93.931 475.401,41.155 466.13,50.426 
	466.13,103.201 "/>
<polygon fill="#F7F7F7" stroke="#F7F7F7" stroke-miterlimit="10" points="475.833,94.365 466.563,103.635 482.31,103.635 
	491.583,94.365 "/>
<polygon fill="#8E8E8E" stroke="#8E8E8E" stroke-miterlimit="10" points="465.533,103.206 465.533,50.431 456.262,41.155 
	456.262,93.931 "/>
<polygon fill="#F7F7F7" stroke="#F7F7F7" stroke-miterlimit="10" points="465.098,103.635 455.828,94.365 442.333,94.365 
	451.605,103.635 "/>
<polygon fill="#CECACA" stroke="#CECACA" stroke-miterlimit="10" points="571.767,40.795 571.767,40.8 571.771,40.795 "/>
<path fill="#CECACA" stroke="#CECACA" stroke-miterlimit="10" d="M590.907,40.795V40.8V40.795z"/>
<polygon fill="#F7F7F7" stroke="#F7F7F7" stroke-miterlimit="10" points="572.126,40.795 581.336,50.005 590.551,40.795 "/>
<path fill="#CECACA" stroke="#CECACA" stroke-miterlimit="10" d="M590.907,81.182v-0.005V81.182z"/>
<polygon fill="#CECACA" stroke="#CECACA" stroke-miterlimit="10" points="571.771,81.182 571.767,81.177 571.767,81.182 "/>
<polygon fill="#545454" points="590.551,81.182 581.336,71.962 572.126,81.182 "/>
<polygon fill="#8E8E8E" stroke="#8E8E8E" stroke-miterlimit="10" points="571.767,41.155 571.767,80.813 581.038,71.542 
	581.038,50.431 "/>
<polygon fill="#CECACA" stroke="#CECACA" stroke-miterlimit="10" points="581.636,50.426 581.636,71.542 590.907,80.813 
	590.907,41.155 "/>
<polygon fill="#CECACA" stroke="#CECACA" stroke-miterlimit="10" points="583.949,151.671 583.949,151.667 583.944,151.671 "/>
<polygon fill="#CECACA" stroke="#CECACA" stroke-miterlimit="10" points="564.814,151.671 564.809,151.667 564.809,151.671 "/>
<polygon fill="#F7F7F7" stroke="#F7F7F7" stroke-miterlimit="10" points="572.126,95.047 581.336,104.263 590.551,95.047 "/>
<polygon fill="#545454" points="590.551,154.573 581.336,145.362 572.126,154.573 "/>
<polygon fill="#8E8E8E" stroke="#8E8E8E" stroke-miterlimit="10" points="571.767,95.416 571.767,154.213 581.038,144.942 
	581.038,104.687 "/>
<polygon fill="#CECACA" stroke="#CECACA" stroke-miterlimit="10" points="581.636,104.687 581.636,144.938 590.907,154.213 
	590.907,95.416 "/>
<polygon fill="#CECACA" stroke="#CECACA" stroke-miterlimit="10" points="517.604,154.578 517.604,154.573 517.598,154.578 "/>
<polygon fill="#CECACA" stroke="#CECACA" stroke-miterlimit="10" points="498.463,154.578 498.468,154.578 498.463,154.573 "/>
<polygon fill="#545454" points="498.821,154.578 517.246,154.578 508.034,145.368 "/>
<polygon fill="#CECACA" stroke="#CECACA" stroke-miterlimit="10" points="561.581,154.578 561.581,154.573 561.576,154.578 "/>
<polygon fill="#545454" points="542.796,154.578 561.221,154.578 552.011,145.368 "/>
<path fill="#CECACA" stroke="#CECACA" stroke-miterlimit="10" d="M535.058,103.084c9.866,2.31,17.252,11.22,17.252,21.858v20
	l9.271,9.274v-29.942c0-8.473-3.332-15.519-8.724-21.191L535.058,103.084L535.058,103.084z"/>
<polygon fill="#CECACA" stroke="#CECACA" stroke-miterlimit="10" points="508.333,103.491 508.333,144.942 517.604,154.218 
	517.604,112.159 "/>
<path fill="#545454" d="M521.477,59.841c2.231-2.121,5.23-3.448,8.547-3.448c3.315,0,6.313,1.327,8.539,3.448l6.216-6.21
	c-3.874-3.612-9.053-5.836-14.752-5.836c-5.706,0-10.884,2.229-14.763,5.836L521.477,59.841z"/>
<path fill="#CECACA" stroke="#CECACA" stroke-miterlimit="10" d="M517.604,68.813c0-3.317,1.324-6.317,3.447-8.546l-6.229-6.229
	c-3.998,3.939-6.486,9.406-6.486,15.443v32.57l9.27-9.808L517.604,68.813L517.604,68.813z"/>
<path fill="#F7F7F7" stroke="#F7F7F7" stroke-miterlimit="10" d="M514.844,53.206c3.985-3.719,9.314-6.014,15.183-6.014
	c5.863,0,11.189,2.294,15.175,6.014l6.902-6.901c-5.692-5.593-13.484-9.051-22.077-9.051c-8.595,0-16.389,3.458-22.084,9.051
	L514.844,53.206z"/>
<path fill="#CECACA" stroke="#CECACA" stroke-miterlimit="10" d="M545.646,53.613c4.106,4.042,6.663,9.658,6.663,15.869v11.14
	c0,10.632-7.386,19.547-17.252,21.865h17.791c5.399-5.725,8.731-14.061,8.731-22.528V68.813c0-8.593-3.463-16.387-9.051-22.083
	L545.646,53.613z"/>
<path fill="#8E8E8E" stroke="#8E8E8E" stroke-miterlimit="10" d="M507.515,46.729c-5.589,5.696-9.052,13.49-9.052,22.079v85.405
	l9.271-9.271V69.481c0-6.21,2.557-11.822,6.664-15.869L507.515,46.729z"/>
<path fill="#8E8E8E" stroke="#8E8E8E" stroke-miterlimit="10" d="M542.441,79.953c0,3.374-1.336,6.431-3.473,8.692l6.878,6.883
	c3.626-3.911,5.864-9.146,5.864-14.907v-11.14c0-6.042-2.49-11.514-6.487-15.443l-6.23,6.229c2.124,2.233,3.448,5.229,3.448,8.542
	V79.953z"/>
<path fill="#F7F7F7" stroke="#F7F7F7" stroke-miterlimit="10" d="M538.54,89.065c-2.228,2.146-5.215,3.478-8.517,3.478h-11.886
	l-9.393,9.938h21.28c6.024,0,11.482-2.496,15.414-6.514L538.54,89.065z"/>
<path fill="#8E8E8E" stroke="#8E8E8E" stroke-miterlimit="10" d="M545.196,109.351l-6.231,6.229
	c2.144,2.266,3.478,5.316,3.478,8.695v29.943l9.271-9.271v-20.004C551.711,118.84,549.209,113.317,545.196,109.351z"/>
<path fill="#545454" d="M544.75,108.944c-3.869-3.627-9.037-5.86-14.727-5.86h-21.255l9.205,8.603h12.05
	c3.302,0,6.286,1.332,8.514,3.473L544.75,108.944z"/>
<polygon fill="#CECACA" stroke="#CECACA" stroke-miterlimit="10" points="720.367,114.448 720.367,114.453 720.375,114.448 "/>
<polygon fill="#CECACA" stroke="#CECACA" stroke-miterlimit="10" points="739.501,114.448 739.506,114.453 739.506,114.448 "/>
<polygon fill="#F7F7F7" stroke="#F7F7F7" stroke-miterlimit="10" points="720.724,114.448 729.938,123.658 739.149,114.448 "/>
<polygon fill="#CECACA" stroke="#CECACA" stroke-miterlimit="10" points="739.506,154.834 739.506,154.83 739.501,154.834 "/>
<polygon fill="#CECACA" stroke="#CECACA" stroke-miterlimit="10" points="720.375,154.834 720.367,154.83 720.367,154.834 "/>
<polygon fill="#545454" points="739.149,154.834 729.938,145.615 720.724,154.834 "/>
<polygon fill="#8E8E8E" stroke="#8E8E8E" stroke-miterlimit="10" points="720.367,114.808 720.367,154.465 729.638,145.194 
	729.638,124.083 "/>
<polygon fill="#CECACA" stroke="#CECACA" stroke-miterlimit="10" points="730.236,124.079 730.236,145.194 739.506,154.465 
	739.506,114.808 "/>
<polygon fill="#CECACA" stroke="#CECACA" stroke-miterlimit="10" points="838.346,154.578 838.346,154.573 838.342,154.578 "/>
<polygon fill="#CECACA" stroke="#CECACA" stroke-miterlimit="10" points="819.208,154.578 819.211,154.578 819.208,154.573 "/>
<polygon fill="#545454" points="819.565,154.578 837.989,154.578 828.777,145.368 "/>
<polygon fill="#CECACA" stroke="#CECACA" stroke-miterlimit="10" points="882.322,154.578 882.322,154.573 882.317,154.578 "/>
<polygon fill="#545454" points="863.54,154.578 881.964,154.578 872.751,145.368 "/>
<path fill="#CECACA" stroke="#CECACA" stroke-miterlimit="10" d="M855.801,103.084c9.867,2.31,17.25,11.22,17.25,21.858v20
	l9.271,9.274v-29.942c0-8.473-3.332-15.519-8.725-21.191L855.801,103.084L855.801,103.084z"/>
<polygon fill="#CECACA" stroke="#CECACA" stroke-miterlimit="10" points="829.076,103.491 829.076,144.942 838.346,154.218 
	838.346,112.159 "/>
<path fill="#545454" d="M842.22,59.841c2.229-2.121,5.229-3.448,8.544-3.448c3.317,0,6.315,1.327,8.542,3.448l6.213-6.21
	c-3.874-3.612-9.049-5.836-14.752-5.836c-5.702,0-10.883,2.229-14.759,5.836L842.22,59.841z"/>
<path fill="#CECACA" stroke="#CECACA" stroke-miterlimit="10" d="M838.346,68.813c0-3.317,1.325-6.317,3.446-8.546l-6.229-6.229
	c-3.996,3.939-6.484,9.406-6.484,15.443v32.57l9.268-9.808V68.813z"/>
<path fill="#F7F7F7" stroke="#F7F7F7" stroke-miterlimit="10" d="M835.587,53.206c3.983-3.719,9.313-6.014,15.18-6.014
	c5.864,0,11.193,2.294,15.178,6.014l6.903-6.901c-5.693-5.593-13.485-9.051-22.081-9.051c-8.594,0-16.388,3.458-22.081,9.051
	L835.587,53.206z"/>
<path fill="#CECACA" stroke="#CECACA" stroke-miterlimit="10" d="M866.388,53.613c4.106,4.042,6.663,9.658,6.663,15.869v11.14
	c0,10.632-7.383,19.547-17.25,21.865h17.789c5.399-5.725,8.731-14.061,8.731-22.528V68.813c0-8.593-3.46-16.387-9.049-22.083
	L866.388,53.613z"/>
<path fill="#8E8E8E" stroke="#8E8E8E" stroke-miterlimit="10" d="M828.258,46.729c-5.591,5.696-9.051,13.49-9.051,22.079v85.405
	l9.271-9.271V69.481c0-6.21,2.555-11.822,6.663-15.869L828.258,46.729z"/>
<path fill="#8E8E8E" stroke="#8E8E8E" stroke-miterlimit="10" d="M863.182,79.953c0,3.374-1.336,6.431-3.472,8.692l6.878,6.883
	c3.626-3.911,5.864-9.146,5.864-14.907v-11.14c0-6.042-2.488-11.514-6.485-15.443l-6.232,6.229c2.126,2.233,3.447,5.229,3.447,8.542
	V79.953L863.182,79.953z"/>
<path fill="#F7F7F7" stroke="#F7F7F7" stroke-miterlimit="10" d="M859.283,89.065c-2.229,2.146-5.217,3.478-8.52,3.478h-11.883
	l-9.395,9.938h21.279c6.027,0,11.482-2.496,15.415-6.514L859.283,89.065z"/>
<path fill="#8E8E8E" stroke="#8E8E8E" stroke-miterlimit="10" d="M865.939,109.351l-6.23,6.229c2.14,2.266,3.474,5.316,3.474,8.695
	v29.943l9.271-9.271v-20.004C872.453,118.84,869.953,113.317,865.939,109.351z"/>
<path fill="#545454" d="M865.496,108.944c-3.872-3.627-9.04-5.86-14.729-5.86h-21.252l9.203,8.603h12.049
	c3.302,0,6.287,1.332,8.517,3.473L865.496,108.944z"/>
<path fill="#545454" d="M770.063,59.846c2.229-2.122,5.224-3.449,8.533-3.449c3.317,0,6.317,1.327,8.544,3.449l6.216-6.215
	c-3.873-3.612-9.054-5.836-14.76-5.836c-5.697,0-10.878,2.229-14.752,5.836L770.063,59.846z"/>
<path fill="#F7F7F7" stroke="#F7F7F7" stroke-miterlimit="10" d="M763.424,53.206c3.983-3.715,9.313-6.009,15.175-6.009
	c5.866,0,11.197,2.294,15.183,6.014l6.902-6.906c-5.695-5.589-13.489-9.051-22.083-9.051c-8.591,0-16.383,3.462-22.075,9.051
	L763.424,53.206z"/>
<path fill="#8E8E8E" stroke="#8E8E8E" stroke-miterlimit="10" d="M762.331,138.868c-3.717-3.986-6.014-9.317-6.014-15.182V69.481
	c0-6.21,2.556-11.822,6.663-15.869l-6.884-6.883c-5.594,5.696-9.051,13.49-9.051,22.079v54.205c0,8.594,3.457,16.387,9.051,22.084
	L762.331,138.868z"/>
<path fill="#CECACA" stroke="#CECACA" stroke-miterlimit="10" d="M800.887,123.687c0,5.869-2.296,11.195-6.014,15.182l6.231,6.229
	c5.589-5.695,9.051-13.49,9.051-22.078V68.813c0-8.593-3.46-16.387-9.051-22.083l-6.884,6.883c4.107,4.046,6.663,9.658,6.663,15.869
	v54.205H800.887L800.887,123.687z"/>
<path fill="#545454" d="M794.467,139.312c-4.044,4.107-9.661,6.658-15.871,6.658c-6.205,0-11.816-2.556-15.863-6.658l-6.213,6.211
	c5.693,5.593,13.485,9.051,22.076,9.051c8.597,0,16.389-3.463,22.083-9.051L794.467,139.312z"/>
<path fill="#CECACA" stroke="#CECACA" stroke-miterlimit="10" d="M769.634,131.56c-2.124-2.229-3.446-5.224-3.446-8.537V68.813
	c0-3.317,1.324-6.313,3.448-8.542l-6.232-6.233c-3.997,3.939-6.485,9.401-6.485,15.443v54.206c0,5.705,2.229,10.883,5.838,14.756
	L769.634,131.56z"/>
<path fill="#8E8E8E" stroke="#8E8E8E" stroke-miterlimit="10" d="M791.019,123.022c0,3.313-1.324,6.313-3.448,8.537l6.879,6.883
	c3.614-3.879,5.841-9.057,5.841-14.762v-54.2c0-6.042-2.488-11.509-6.485-15.443l-6.233,6.229c2.127,2.233,3.448,5.233,3.448,8.542
	L791.019,123.022L791.019,123.022z"/>
<path fill="#F7F7F7" stroke="#F7F7F7" stroke-miterlimit="10" d="M787.145,131.99c-2.23,2.12-5.23,3.444-8.546,3.444
	c-3.313,0-6.311-1.324-8.536-3.444l-6.899,6.897c3.935,4,9.399,6.485,15.437,6.485c6.041,0,11.512-2.485,15.445-6.485
	L787.145,131.99z"/>
<polygon fill="#CECACA" stroke="#CECACA" stroke-miterlimit="10" points="691.894,60.743 691.894,60.743 691.898,60.743 "/>
<polygon fill="#CECACA" stroke="#CECACA" stroke-miterlimit="10" points="711.029,60.743 711.034,60.743 711.034,60.743 "/>
<polygon fill="#CECACA" stroke="#CECACA" stroke-miterlimit="10" points="711.034,72.351 711.034,72.346 711.029,72.351 "/>
<polygon fill="#CECACA" stroke="#CECACA" stroke-miterlimit="10" points="710.678,72.351 700.923,65.528 692.253,72.351 "/>
<polygon fill="#CECACA" stroke="#CECACA" stroke-miterlimit="10" points="642.625,56.697 642.625,38.272 635.8,48.131 "/>
<path fill="#545454" d="M623.945,60.481c2.23-2.121,5.23-3.444,8.54-3.444l9.771,0.019l-6.878-8.626h-2.893
	c-5.696,0-10.878,2.233-14.752,5.841L623.945,60.481z"/>
<path fill="#CECACA" stroke="#CECACA" stroke-miterlimit="10" d="M620.069,124.233v-54.78c0-3.317,1.327-6.317,3.448-8.542
	l-6.23-6.233c-4,3.939-6.488,9.401-6.488,15.443v54.778c0,5.557,2.121,10.613,5.565,14.453l6.895-6.896
	C621.298,130.261,620.069,127.401,620.069,124.233z"/>
<path fill="#F7F7F7" stroke="#F7F7F7" stroke-miterlimit="10" d="M617.313,53.851c3.98-3.724,9.313-6.019,15.178-6.019h2.888
	l6.883-9.916l-9.771-0.019c-8.594,0-16.383,3.458-22.081,9.046L617.313,53.851z"/>
<path fill="#8E8E8E" stroke="#8E8E8E" stroke-miterlimit="10" d="M615.939,139.774c-3.555-3.948-5.738-9.154-5.738-14.879V70.122
	c0-6.21,2.556-11.827,6.663-15.869l-6.881-6.883c-5.591,5.696-9.055,13.49-9.055,22.079v54.778c0,8.444,3.355,16.107,8.778,21.78
	L615.939,139.774z"/>
<path fill="#CECACA" stroke="#CECACA" stroke-miterlimit="10" d="M670.563,88.79c-2.148-2.229-3.494-5.211-3.494-8.515V69.444
	c0-3.313,1.326-6.313,3.447-8.542l-6.232-6.233c-3.995,3.939-6.486,9.401-6.486,15.443v10.831c0,5.688,2.246,10.856,5.884,14.725
	L670.563,88.79z"/>
<path fill="#8E8E8E" stroke="#8E8E8E" stroke-miterlimit="10" d="M691.894,69.444v0.514v0.154v1.874l8.646-6.813l-0.038-0.369
	c-0.985-3.906-3.046-7.383-5.831-10.125l-6.227,6.229C690.572,63.136,691.894,66.131,691.894,69.444z"/>
<path fill="#545454" d="M679.483,57.033c3.313,0,6.313,1.322,8.538,3.444l6.228-6.224c-3.869-3.612-9.064-5.827-14.766-5.827
	c-5.7,0-10.878,2.229-14.753,5.836l6.216,6.215C673.172,58.355,676.17,57.033,679.483,57.033z"/>
<path fill="#F7F7F7" stroke="#F7F7F7" stroke-miterlimit="10" d="M679.483,47.828c5.863,0,11.204,2.285,15.19,6.005l6.888-6.893
	c-5.695-5.588-13.485-9.046-22.078-9.046c-8.592,0-16.384,3.458-22.079,9.046l6.903,6.906
	C668.29,50.122,673.617,47.828,679.483,47.828z"/>
<path fill="#8E8E8E" stroke="#8E8E8E" stroke-miterlimit="10" d="M663.259,96.094c-3.745-3.977-6.056-9.294-6.056-15.146V70.117
	c0-6.206,2.551-11.822,6.658-15.869l-6.878-6.878c-5.595,5.696-9.052,13.485-9.052,22.079V80.28c0,8.577,3.478,16.356,9.096,22.047
	L663.259,96.094z"/>
<path fill="#CECACA" stroke="#CECACA" stroke-miterlimit="10" d="M701.985,47.37l-6.887,6.883c2.931,2.888,5.079,6.57,6.062,10.701
	l0.061,0.154l9.813,6.878v-1.383v-0.972v-0.182C711.034,60.855,707.576,53.066,701.985,47.37z"/>
<path fill="#CECACA" stroke="#CECACA" stroke-miterlimit="10" d="M701.987,102.069l-6.894,6.893
	c4.117,4.046,6.686,9.691,6.686,15.934c0,5.959-2.362,11.364-6.186,15.369l6.233,6.229c5.696-5.71,9.222-13.583,9.222-22.267
	C711.049,115.599,707.583,107.774,701.987,102.069z"/>
<path fill="#545454" d="M695.183,140.7c-4.029,4.004-9.573,6.48-15.689,6.48h-47.008c-6.352,0-12.074-2.682-16.141-6.962
	l-6.232,6.233c5.724,5.762,13.637,9.332,22.378,9.332h47.005c8.502,0,16.215-3.396,21.895-8.883L695.183,140.7z"/>
<path fill="#F7F7F7" stroke="#F7F7F7" stroke-miterlimit="10" d="M694.656,108.551l6.9-6.901
	c-5.646-5.532-13.346-8.967-21.831-8.967c-3.393,0-6.463-1.332-8.734-3.468l-6.899,6.902c3.978,4.009,9.517,6.509,15.635,6.509
	C685.488,102.622,690.721,104.888,694.656,108.551z"/>
<path fill="#545454" d="M688.057,115.149l6.177-6.172c-3.825-3.562-8.914-5.752-14.508-5.752c-6.284,0-11.972-2.565-16.061-6.688
	l-6.215,6.215c5.737,5.607,13.606,9.074,22.274,9.074C682.985,111.821,685.889,113.093,688.057,115.149z"/>
<path fill="#8E8E8E" stroke="#8E8E8E" stroke-miterlimit="10" d="M691.91,124.233c0,3.401-1.381,6.49-3.609,8.732l6.874,6.874
	c3.71-3.897,6.004-9.149,6.004-14.942c0-6.08-2.5-11.574-6.504-15.515l-6.183,6.183C690.609,117.785,691.91,120.821,691.91,124.233z
	"/>
<path fill="#F7F7F7" stroke="#F7F7F7" stroke-miterlimit="10" d="M687.842,133.358c-2.21,2.023-5.126,3.285-8.348,3.285H632.49
	c-3.461,0-6.589-1.43-8.844-3.719l-6.873,6.874c3.955,4.168,9.528,6.785,15.717,6.785h47.005c5.951,0,11.346-2.411,15.269-6.304
	L687.842,133.358z"/>
<polygon fill="#CECACA" stroke="#CECACA" stroke-miterlimit="10" points="922.595,111.906 922.599,111.906 922.595,111.901 "/>
<polygon fill="#CECACA" stroke="#CECACA" stroke-miterlimit="10" points="922.595,92.771 922.599,92.767 922.595,92.767 "/>
<polygon fill="#8E8E8E" stroke="#8E8E8E" stroke-miterlimit="10" points="922.595,111.551 931.809,102.336 922.595,93.126 "/>
<polygon fill="#CECACA" stroke="#CECACA" stroke-miterlimit="10" points="934.207,92.767 934.207,92.767 934.207,92.771 "/>
<polygon fill="#CECACA" stroke="#CECACA" stroke-miterlimit="10" points="934.207,111.901 934.207,111.906 934.207,111.906 "/>
<polygon fill="#545454" points="932.235,102.69 922.959,111.906 934.127,111.906 943.346,102.69 "/>
<polygon fill="#F7F7F7" stroke="#F7F7F7" stroke-miterlimit="10" points="922.959,92.767 932.23,102.093 943.945,102.093 
	953.267,92.767 "/>
<path fill="#8E8E8E" stroke="#8E8E8E" stroke-miterlimit="10" d="M930.202,133.966l6.935,6.93c4.112-3.949,6.688-9.485,6.688-15.625
	v-22.209l-9.279,9.285l0.009,12.262C934.552,128.358,932.842,131.687,930.202,133.966z"/>
<path fill="#F7F7F7" stroke="#F7F7F7" stroke-miterlimit="10" d="M929.735,134.349c-2.107,1.65-4.729,2.674-7.607,2.674
	c-2.874,0-5.49-1.023-7.593-2.668l-6.958,6.953c3.854,3.5,8.948,5.653,14.551,5.653c5.607,0,10.71-2.153,14.562-5.659
	L929.735,134.349z"/>
<path fill="#CECACA" stroke="#CECACA" stroke-miterlimit="10" d="M909.721,124.606V70.402c0-3.318,1.322-6.317,3.444-8.546
	l-6.229-6.229c-4,3.935-6.485,9.402-6.485,15.443v54.205c0,6.141,2.575,11.683,6.687,15.631l6.931-6.936
	C911.432,131.69,909.721,128.358,909.721,124.606z"/>
<path fill="#545454" d="M913.595,61.435c2.229-2.126,5.225-3.449,8.532-3.449c3.317,0,6.317,1.327,8.547,3.449l6.215-6.21
	c-3.879-3.612-9.061-5.841-14.762-5.841c-5.696,0-10.873,2.229-14.747,5.832L913.595,61.435z"/>
<path fill="#8E8E8E" stroke="#8E8E8E" stroke-miterlimit="10" d="M937.337,55.626l-6.233,6.233c2.127,2.229,3.448,5.229,3.448,8.537
	v3.865h9.271v-3.196C943.823,65.028,941.333,59.561,937.337,55.626z"/>
<path fill="#545454" d="M937.113,141.724c-3.962,3.616-9.215,5.836-14.985,5.836c-5.766,0-11.009-2.22-14.972-5.832l-6.2,6.205
	c5.603,5.094,13.019,8.229,21.172,8.229c8.159,0,15.579-3.14,21.188-8.238L937.113,141.724z"/>
<path fill="#CECACA" stroke="#CECACA" stroke-miterlimit="10" d="M944.421,125.271c0,6.304-2.645,11.994-6.864,16.051l6.205,6.201
	c6.099-5.758,9.931-13.893,9.931-22.916V93.192l-9.271,9.271V125.271L944.421,125.271z"/>
<path fill="#8E8E8E" stroke="#8E8E8E" stroke-miterlimit="10" d="M899.854,71.065c0-6.206,2.551-11.817,6.662-15.864l-6.883-6.883
	c-5.593,5.696-9.053,13.49-9.053,22.083v54.206c0,9.026,3.832,17.162,9.931,22.918l6.201-6.2c-4.22-4.056-6.858-9.752-6.858-16.056
	V71.065L899.854,71.065z"/>
<path fill="#F7F7F7" stroke="#F7F7F7" stroke-miterlimit="10" d="M906.959,54.795c3.981-3.715,9.309-6.009,15.173-6.009
	c5.869,0,11.2,2.294,15.183,6.014l6.9-6.901c-5.696-5.593-13.49-9.051-22.083-9.051c-8.589,0-16.378,3.458-22.069,9.046
	L906.959,54.795z"/>
<path fill="#CECACA" stroke="#CECACA" stroke-miterlimit="10" d="M937.758,55.201c4.106,4.047,6.663,9.664,6.663,15.864v3.201h9.271
	v-3.864c0-8.593-3.464-16.383-9.052-22.079L937.758,55.201z"/>
<path opacity="0.8" fill="#CECACA" stroke="#CECACA" stroke-miterlimit="10" enable-background="new    " d="M159.39,113.892
	l-9.267-9.271l-0.003,19.069c0,5.701,2.228,10.877,5.838,14.752l6.878-6.879c-2.125-2.229-3.449-5.229-3.449-8.537v-9.135H159.39z"
	/>
<polygon opacity="0.8" fill="#545454" enable-background="new    " points="159.8,113.458 202.942,113.458 193.687,104.201 
	150.546,104.201 "/>
<path fill="#CECACA" stroke="#CECACA" stroke-miterlimit="10" d="M388.843,113.593l-8.667-8.668l-0.005,18.766
	c0,5.295,1.967,10.365,5.549,14.322l6.456-6.457c-2.149-2.355-3.332-5.375-3.332-8.529L388.843,113.593L388.843,113.593z"/>
<polygon fill="#545454" points="423.314,104.5 380.599,104.5 389.254,113.159 431.973,113.159 "/>
</svg>
