<?xml version="1.0" encoding="utf-8"?>
<!-- Generator: Adobe Illustrator 16.0.0, SVG Export Plug-In . SVG Version: 6.00 Build 0)  -->
<!DOCTYPE svg PUBLIC "-//W3C//DTD SVG 1.1//EN" "http://www.w3.org/Graphics/SVG/1.1/DTD/svg11.dtd">
<svg version="1.1" id="Layer_1" xmlns="http://www.w3.org/2000/svg" xmlns:xlink="http://www.w3.org/1999/xlink" x="0px" y="0px"
	 width="55.777px" height="68.39px" viewBox="0 0 55.777 68.39" style="enable-background:new 0 0 55.777 68.39;"
	 xml:space="preserve">
<style type="text/css">
<![CDATA[
	.st0{fill:#ED1F24;}
	.st1{opacity:0.5;fill:#2D2D2D;}
]]>
</style>
<path class="st1" d="M1.641,5.439C0.625,6.025,0,7.107,0,8.279V65.11c0,1.171,0.625,2.255,1.641,2.841
	c1.014,0.586,2.266,0.586,3.279,0l49.216-28.416c1.016-0.584,1.641-1.668,1.641-2.842c0-1.171-0.625-2.254-1.641-2.839L4.92,5.439
	C3.906,4.853,2.654,4.853,1.641,5.439z"/>
<path class="st0" d="M1.641,0.439C0.625,1.025,0,2.108,0,3.279v56.832c0,1.171,0.625,2.254,1.641,2.84
	c1.014,0.586,2.266,0.586,3.279,0l49.216-28.416c1.016-0.584,1.641-1.667,1.641-2.842c0-1.17-0.625-2.254-1.641-2.838L4.92,0.439
	C3.906-0.146,2.654-0.146,1.641,0.439z"/>
</svg>
