<?xml version="1.0" encoding="utf-8"?>
<!-- Generator: Adobe Illustrator 16.0.0, SVG Export Plug-In . SVG Version: 6.00 Build 0)  -->
<!DOCTYPE svg PUBLIC "-//W3C//DTD SVG 1.1//EN" "http://www.w3.org/Graphics/SVG/1.1/DTD/svg11.dtd">
<svg version="1.1" id="Layer_1" xmlns="http://www.w3.org/2000/svg" xmlns:xlink="http://www.w3.org/1999/xlink" x="0px" y="0px"
	 width="34.784px" height="34.784px" viewBox="0 0 34.784 34.784" style="enable-background:new 0 0 34.784 34.784;"
	 xml:space="preserve">
<style type="text/css">
<![CDATA[
	.st0{fill:#990000;}
	.st1{fill:#FFFFFF;}
]]>
</style>
<rect class="st0" width="34.784" height="34.784"/>
<g>
	<path class="st1" d="M20.191,15.771c0.868,0.774,1.427,1.889,1.427,3.144c0,2.333-1.893,4.225-4.226,4.225
		s-4.226-1.892-4.226-4.225c0-1.255,0.558-2.37,1.427-3.144c-4.801,1.067-8.351,4.451-8.351,4.451S11.235,25,17.392,25
		s11.149-4.778,11.149-4.778S24.991,16.839,20.191,15.771z"/>
	<g>
		<g>
			<path class="st1" d="M28.507,16.471c-2.603-1.682-6.644-3.687-11.116-3.687c-4.471,0-8.512,2.005-11.114,3.687l-1.628-2.52
				c2.941-1.901,7.54-4.167,12.742-4.167c5.204,0,9.803,2.266,12.744,4.167L28.507,16.471z"/>
		</g>
	</g>
</g>
</svg>
