<?xml version="1.0" encoding="utf-8"?>
<!-- Generator: Adobe Illustrator 16.0.0, SVG Export Plug-In . SVG Version: 6.00 Build 0)  -->
<!DOCTYPE svg PUBLIC "-//W3C//DTD SVG 1.1//EN" "http://www.w3.org/Graphics/SVG/1.1/DTD/svg11.dtd">
<svg version="1.1" xmlns="http://www.w3.org/2000/svg" xmlns:xlink="http://www.w3.org/1999/xlink" x="0px" y="0px"
	 width="260.391px" height="130.442px" viewBox="0 0 260.391 130.442" enable-background="new 0 0 260.391 130.442"
	 xml:space="preserve">
<g id="Layer_17" display="none">
	<g display="inline">
		<circle cx="52.08" cy="103.351" r="20.09"/>
		<circle cx="198.309" cy="103.351" r="20.089"/>
		<path d="M248.808,82.919c-2.262-1.737-3.118-3.026-3.289-3.304c0-9.476-0.004-21.228-1.56-23.937
			c-1.426-2.483-13.745-15.926-15.769-18.128c0.855-0.362,3.073-1.261,3.94-1.261c0.416,0,0.628-0.204,0.73-0.375
			c0.37-0.607-0.07-1.711-0.122-1.836l-0.05-0.121l-0.122-0.03c-4.454-1.083-10.128-1.993-16.832-2.718
			c-2.23-2.068-6.401-5.289-11.952-5.119l-0.102,0.25c-12.18-0.876-61.177-0.97-71.676,0.111l-0.132-0.361
			c-4.644-0.16-7.798,2.667-9.604,4.726c-5.891,0.466-10.18,0.983-12.073,1.48c-9.052,2.379-36.846,20.927-42.644,24.838
			c-0.427-0.17-1.568-0.358-5.287-0.358c-8.183,0-34.369,3.364-41.067,7.585c-0.992,0.626-1.97,1.562-2.905,2.78l-0.301,0.39
			l0.149,0.015c-0.043,0.014-0.088,0.03-0.134,0.048l-0.068,0.026l-0.044,0.062c-0.59,0.827-1.18,1.795-1.755,2.875l-0.202,0.384
			l0.502,0.017c-0.131,0.016-0.273,0.032-0.418,0.052l-0.126,0.017l-0.061,0.12c-0.271,0.536-0.539,1.098-0.797,1.669l-0.194,0.432
			l0.004,0l-0.034,0.078c-1.836,4.208-3.134,8.816-3.908,11.57c-0.286,1.02-0.513,1.824-0.667,2.251
			c-1.007,2.808,0.608,16.38,1.553,17.8c0.695,1.041,2.222,1.104,3.338,1.15c0.454,0.019,0.967,0.039,1.106,0.14
			c0.28,0.2,0.563,2.06,0.652,3.671l0.004,0.071l1.617,2.603l0.102,0.021c2.44,0.512,4.569,0.771,6.326,0.771
			c3.451,0,4.343-1.014,4.378-1.059l0.086-0.103l-0.585-2.716c0.245-0.709,1.587-1.098,3.795-1.098c2.021,0,4.08,0.325,4.129,0.332
			l42.466,1.429l0.106,0.003l1.718-1.84h92.064c2.764,0,6.598,0.164,10.305,0.323c3.459,0.149,6.727,0.289,8.929,0.289
			c1.94,0,5.408-0.5,9.425-1.079c5.473-0.789,11.726-1.7,15.896-1.573c7.182,0.195,20.102-1.617,20.226-1.635l0.104-0.016
			l1.441-2.123c0.546,0.407,2.08,1.438,3.613,1.438c1.142,0,2.03-0.563,2.64-1.673c0.614-1.121,1.305-1.408,2.034-1.712
			c1.42-0.591,2.76-1.149,2.76-7.605C250.47,84.269,249.219,83.075,248.808,82.919z M169.652,29.173
			c-14.151,0-28.128,0.446-39.085,1.081c0.83-0.693,1.591-1.205,1.591-1.205l3.4-1.063l0.85-0.572L136,27.362
			c9.226-0.582,25.246-0.66,39.578-0.514c0.417,0.483,0.858,1.447,1.218,2.364C174.458,29.187,172.077,29.173,169.652,29.173z
			 M184.181,29.336c-0.635-0.887-1.478-1.833-2.008-2.403c6.804,0.105,12.854,0.256,17.077,0.418l-0.549,0.063l0.952,0.572
			l3.813,1.063c0,0,1.147,0.546,2.358,1.276C199.272,29.851,192.022,29.518,184.181,29.336z"/>
	</g>
</g>
<g id="Layer_16" display="none">
	<g display="inline">
		<ellipse cx="73.177" cy="107.519" rx="15.552" ry="15.923"/>
		<ellipse cx="184.235" cy="106.318" rx="15.552" ry="15.925"/>
		<path d="M223.79,69.411c-0.014-0.135-0.031-0.269-0.045-0.404c-0.047-0.414-0.096-0.833-0.146-1.255
			c-0.008-0.067-0.015-0.132-0.023-0.199c-0.005-0.055-0.014-0.109-0.02-0.166c-0.008-0.056-0.013-0.11-0.02-0.167
			c-0.01-0.066-0.016-0.13-0.025-0.196c-0.052-0.423-0.105-0.841-0.158-1.255c-0.018-0.133-0.036-0.268-0.053-0.401
			c-0.93-7.047-2.031-12.633-2.726-13.855c-0.121-0.316-0.226-0.527-0.309-0.585c-1.911-1.375-9.89,0.014-10.539,1.279
			c-0.036,0.07-0.069,0.235-0.098,0.472c-0.114,0.235-0.184,0.777-0.214,1.554c-2.35-6.86-6.804-16.472-9.029-16.893
			c-27.854-5.243-72.681-0.409-79.322,1.396c-2.734,0.742-10.861,7.07-33.273,25.024c-13.043,0.643-40.869,8.684-43.043,9.489
			c-2.173,0.804-5.942,15.602-5.942,15.602s-1.884,0.32-2.753,1.287c-0.87,0.963,0.435,12.062,1.015,13.348
			c0.579,1.286,4.782,2.09,4.782,2.09s0.87,0.967,1.595,2.896c0.725,1.93,12.608,4.344,12.608,4.344s17.971,1.286,19.131-0.644
			c1.159-1.929,14.058-3.216,14.058-3.216s72.462,0,73.332,0c0.87,0,3.044,2.25,5.362,2.089c2.319-0.16,25.797-1.929,30.869-2.41
			c5.072-0.483,21.016-5.309,21.885-6.756s1.305-12.475,0.581-13.602c-0.509-0.789-2.033-1.822-2.903-2.371
			c2.458-0.195,5.121-0.797,5.934-1.75c0.064-0.076,0.118-0.306,0.16-0.643C224.839,82.163,224.573,76.472,223.79,69.411z"/>
	</g>
</g>
<g id="Layer_15" display="none">
	<g display="inline">
		<path d="M70.969,107.061c0,9.048-7.333,16.381-16.379,16.381s-16.38-7.333-16.38-16.381c0-9.044,7.333-16.379,16.38-16.379
			S70.969,98.017,70.969,107.061z"/>
		<circle cx="197.684" cy="106.747" r="16.379"/>
		<path d="M244.323,97.092c-0.287-0.383-1.106-0.751-1.616-0.953c-0.035-3.527-0.586-7.108-0.82-8.044
			c-0.21-0.843-1.526-1.342-2.291-1.564c0.58-21.14-8.584-37.768-15.479-41.677c-1.394-0.79-4.299-1.469-8.878-2.076
			c-1.786-1.68-3.522-2.601-5.95-3.161c-7.3-1.683-28.262-2.282-45.446-2.282c-12.799,0-23.695,0.325-26.498,0.789
			c-2.571,0.427-4.972,1.423-7.294,2.387c-0.522,0.217-1.048,0.435-1.581,0.649c-12.227,0.738-25.012,1.671-28.035,2.494
			c-10.769,2.931-25.335,16.04-33.129,21.636c-1.863,1.338-3.471,2.494-3.729,2.605l-4.486,1.498
			c-26.37,5.91-30.664,9.329-32.728,10.972c-0.286,0.227-0.525,0.42-0.783,0.579c-2.068,1.279-4.372,7.514-4.869,8.917
			c-0.332,0.131-1.042,0.382-1.626,0.382c-1.293,0-3.211,3.127-3.211,7.445c0,3.848,3.535,7.582,4.405,8.444
			c-0.051,0.523-0.051,1.676,0.746,2.648c0.922,1.128,8.111,1.348,11.474,1.387c0.825,1.277,2.927,1.423,3.837,1.423
			c0.531,0,1.054-0.044,1.444-0.127c0.362,0,0.948,0.737,1.23,1.27l0.129,0.241l0.273,0.017c0.192,0.013,19.364,1.21,28.047,1.21
			c6.181,0,6.886-0.471,7.313-1.246c0.068-0.124,0.083-0.15,0.3-0.207c0.541-0.146,0.823-0.33,1.072-0.493
			c0.452-0.294,0.918-0.601,3.913-0.601c0.711,0,2.771,0.036,5.883,0.091c9.5,0.168,29.268,0.517,50.196,0.517
			c18.182,0,33.332-0.264,45.027-0.782c1.458-0.064,2.304-0.308,2.582-0.401l27.069,0.203l0.147-0.197
			c0.399-0.533,1.962-2.228,2.803-1.447c0.622,0.579,0.975,1.24,1.258,1.771c0.353,0.66,0.685,1.283,1.395,1.283
			c0.689,0,1.021-0.746,1.368-1.535c0.213-0.481,0.569-1.287,0.849-1.287c0.464,0,2.967,0.091,5.866,0.197
			c3.979,0.144,8.488,0.309,9.655,0.309c1.255,0,2.57-0.588,3.964-1.21c1.025-0.458,2.083-0.932,3.214-1.226
			c0.898-0.231,1.629-1.134,2.171-2.684C244.453,102.544,244.759,97.672,244.323,97.092z M208.375,42.04
			c-2.854-0.251-6.077-0.484-9.62-0.691l-0.763-0.811c4.147,0.321,7.222,0.707,9.152,1.155
			C207.584,41.794,207.992,41.908,208.375,42.04z M193.731,41.082c-14.653-0.709-30.6-0.901-37.866-0.901l-0.797,0.002l-0.391-0.553
			c3.105-0.047,6.398-0.073,9.807-0.073c10.621,0,20.705,0.232,28.426,0.651L193.731,41.082z M149.151,39.745l0.363,0.515
			c-3.572,0.081-7.534,0.217-11.647,0.402c0.539-0.145,1.093-0.272,1.655-0.366C140.849,40.075,144.263,39.881,149.151,39.745z"/>
	</g>
</g>
<g id="Layer_14">
	<g>
		<circle cx="34.639" cy="105.332" r="18.11"/>
		<circle cx="184.871" cy="105.332" r="18.111"/>
		<path d="M257.431,90.383c-0.198-0.206-2.191-0.396-3.401-0.494c-0.539-0.042-0.552-0.046-0.718-0.213
			c-0.192-0.19-0.206-0.442-0.208-0.732c-0.054-14.403-1.472-35.525-1.863-37.825c-0.184-1.079-1.274-1.777-1.274-1.777
			c-0.382-6.69-3.777-36.481-9.838-37.66c-18.362-3.574-146.533-2.643-155.372,0c-0.977,0.292-6.877,7.369-16.037,19.115
			c-2.556,0.453-18.211,18.809-22.41,24.979c-0.657,0.106-1.291,0.263-1.907,0.45c-4.49,1.163-29.882,13.503-32.529,15.593
			c-2.955,2.332-5.861,17.536-5.861,17.536S4.923,89.2,3.369,90.91c-1.556,1.711,0,14.462,0,14.462c1.679,2.017,16.778,0,16.778,0
			c-0.384-0.619,0.943-1.458,0.954-2.409c2.839-1.769,7.651-4.717,15.684-2.566c0.824,0.22,1.532,0.371,2.145,0.468l-1.292,3.313
			c0,0,10.478,3.548,14.289,3.909c0.348,3.12,1.409,5.363,3.597,5.363c2.303,0,1.422-3.761,3.421-5.216
			c24.694,0.343,95.698,1.013,112.229-0.861c3.988-0.453,7.999-3.141,11.854-3.613l13.778,0.525l1.088-1.589h4.453
			c0.604,4.206,1.647,8.544,2.497,8.544c2.762,0,0.926-5.426,5.001-5.771c1.883-0.159,3.283-0.425,4.294-0.767
			c0.531,0.446,1.098,0.793,1.588,0.793c1.134,0,32.496,0.103,37.379,0.06c1.14-0.01,1.478-0.109,1.861-0.253
			C257.41,104.381,258.2,91.182,257.431,90.383z"/>
	</g>
</g>
<g id="Layer_13" display="none">
	<g display="inline">
		<circle cx="63.576" cy="107.38" r="16.061"/>
		<circle cx="199.228" cy="107.38" r="16.061"/>
		<path d="M15.579,92.768c-0.001,0,0.006,0.169,0.023,0.461c0.097,1.703,0.537,7.626,1.993,9.14c0,0-1.396,1.031-0.93,2.362
			c0.464,1.329,1.452,5.667,1.452,5.667s4.129,1.864,8.937,1.864c4.807,0,18.917,0,18.917,0s4.653,0.295,6.513,1.477
			c1.861,1.182,22.329,0.442,22.329,0.442s3.722-0.147,6.047-0.591c0,0,91.332-0.59,95.052,0c0,0,2.947,0.444,3.722,0
			c0.775-0.442,3.877-1.328,5.893-1.033s28.221-2.511,28.221-2.511s2.636-1.919,5.426-1.919c2.791,0,14.267,0,16.282,0
			c2.017,0,4.032-0.739,4.032-3.692c0,0,3.722-1.328,4.807-2.807c1.086-1.476,0.156-11.223,0-12.405
			c-0.156-1.182-1.24-3.985-3.101-3.985c0,0-5.334-41.621-12.947-42.236c-47.946-3.883-103.556-2.01-113.271,0
			c-25.592,5.29-50.307,25.447-51.703,26.627c0,0-0.621-0.59-2.947,0C58,70.221,18.524,85.828,15.579,92.768z"/>
	</g>
</g>
<g id="Layer_12" display="none">
	<g display="inline">
		<circle cx="46.656" cy="106.805" r="16.637"/>
		<circle cx="200.711" cy="106.805" r="16.638"/>
		<path d="M243.063,92.594c-0.198-0.206-2.19-0.396-3.399-0.494c-0.539-0.043-0.553-0.046-0.719-0.213
			c-0.19-0.191-0.205-0.442-0.206-0.733c-0.056-14.403-1.475-25.209-1.864-27.51c-0.184-1.08-1.274-1.777-1.274-1.777
			c-0.383-6.69-5.174-25.141-9.839-29.184c-4.666-4.042-125.096-4.812-140.691,0.312c-9.511,3.125-28.773,29.65-28.773,29.65
			s0,0-0.777,0c-0.777,0-30.01,6.842-32.964,9.174c-2.955,2.332-2.177,19.747-2.177,19.747s-1.089-0.156-2.644,1.554
			c-1.554,1.711,0,13.063,0,13.063c4.51,3.73,10.884,1.399,10.884,1.399c-0.383-0.619-0.53-1.458-0.519-2.408
			c2.838-1.769,9.125-4.718,17.156-2.568c0.825,0.221,1.532,0.372,2.145,0.47l-1.292,3.313c0,0,11.029,3.734,14.573,3.932
			s105.754,1.429,124.857-0.737c3.987-0.453,7.999-3.141,11.854-3.613l13.779,0.525l1.088-1.588h7.044c0,0,2.021,2.799,3.42,2.799
			c1.135,0,11.129,0.102,16.014,0.058c1.14-0.009,1.477-0.107,1.86-0.252C243.042,106.591,243.833,93.393,243.063,92.594z"/>
	</g>
</g>
<g id="Layer_11" display="none">
	<g display="inline">
		<circle cx="47.684" cy="103.199" r="20.242"/>
		<circle cx="202.556" cy="103.199" r="20.242"/>
		<path d="M31.27,97.237h-7.569c0,0,0,2.009,0.154,3.398h-8.187c0,0-8.498-2.782-9.27-12.359c0,0,0.772-1.545,1.391-1.699
			c0,0-1.236-9.577,0.309-10.504c1.544-0.928,1.544-2.317,2.008-2.317c0.464,0-1.08-13.672,3.245-17.843
			c4.326-4.171,29.815-6.952,47.425-6.952c0,0,1.236,0.464,1.854,0.928c0,0,26.571-22.502,36.612-24.356
			c10.042-1.854,11.432-1.391,14.058-1.391c2.625,0,50.188,0,50.188,0s3.089-0.154,4.479,3.708
			c1.391,3.862,5.158,15.088,6.086,24.202l1.08-0.619h74.229c0,0,1.288,0,1.288,5.715c0,5.716,0,21.705,0,21.705
			s1.473,0.311,2.116,0.311s1.196,0.926,1.196,1.389c0,0.465,0.184,9.424-0.369,9.888c-0.551,0.464,0.92,3.398-4.969,3.398
			c-5.887,0-1.839-0.155-2.667,0.927c-0.829,1.081-8.141,0-8.141,0l-34.303,2.781c0,0-0.463,2.317-4.325,2.317s-32.749,0-32.749,0
			s0,1.699-1.545,1.699c-1.546,0-93.461,0-93.461,0s-2.933-0.927-2.933-3.244h-9.579L31.27,97.237z"/>
	</g>
</g>
<g id="Layer_10" display="none">
	<g display="inline">
		<circle cx="52.551" cy="104.65" r="18.792"/>
		<circle cx="185.34" cy="104.65" r="18.791"/>
		<path d="M241.647,94.104c-0.529-1.591-2.826-2.65-2.826-2.65c0.28-2.104-0.553-17.452-1.086-24.242
			c0.648,0,0.482-4.861,0.067-5.275c-0.415-0.414-1.746-0.652-4.035-0.737c-17.443-0.644-78.78-1.474-78.78-1.474
			s-0.049,0.2-0.065,0c-1.178-14.822-4.546-19.662-4.95-21.646c-0.19-0.932,1.187-2.086,0.352-2.419
			c-3.317-1.325-41.73-3.506-49.363,0c-0.5,0.229-0.605,1.002-2.381,2.701c-4.785,4.575-17.163,22.669-17.163,22.669
			c-22.784,0-49.953,3.689-54.722,4.75s-5.829,7.241-5.829,7.241s-1.06,2.649-1.981,3.355c-0.922,0.707,1.275,17.95,1.275,17.95
			l-0.884,1.06c0,0-1.06,5.829,0.177,8.125c1.236,2.296,7.948,2.119,8.83,1.59c0.884-0.53,3.533-3.002,3.533-3.002
			s3.885,0,4.415-0.177c0.531-0.176,0.707,5.121,0.707,5.121l27.023,6.006c0,0,2.913-4.759,6.059-7.312
			c0.501,0.441,1.061,0.914,1.479,1.334c1.013,1.013,3.04,2.025,4.973,2.025s80.316,0,82.25,0c1.486,0,2.748-0.931,3.254-2.237
			l6.195,0.489l5.476-0.353c0,0,18.897,5.651,22.431,2.295c3.532-3.355,13.953-5.298,14.835-5.651
			c0.883-0.354,3.709,2.295,4.239,3.002c0.529,0.706,24.903,0.53,24.903,0.53S242.177,95.694,241.647,94.104z"/>
	</g>
</g>
<g id="Layer_8" display="none">
	<g display="inline">
		<path d="M80.409,106.552c0,9.328-7.561,16.89-16.888,16.89c-9.326,0-16.887-7.562-16.887-16.89
			c0-9.324,7.561-16.886,16.887-16.886C72.848,89.667,80.409,97.228,80.409,106.552z"/>
		<circle cx="189.092" cy="106.552" r="16.887"/>
		<path d="M235.873,91.651c-0.355-0.665-2.053-2.634-2.088-3.479c-0.234-5.444-1.326-10.446-4.754-10.446
			c-6.434-12.686-12.054-20.999-15.396-21.947c-1.351-0.382-4.577-0.809-9.082-1.232c-1.592-1.647-3.632-3.492-5.43-4.279
			c-0.335-0.146-0.79-0.287-1.347-0.42c-0.021-0.025-0.043-0.05-0.05-0.057l-0.042,0.035c-11.103-2.618-62.375-3.05-68.01-1.12
			c-1.024,0.351-4.719,2.716-7.723,4.699c-2.961,0.358-5.4,0.807-7.154,1.361c-1.647,0.521-12.255,5.613-30.565,17.569
			c-9.243,0.167-48.975,8.52-50.93,9.35s-1.956,10.628-3.2,10.795c-1.244,0.166-4.622,1.162-5.333,1.826
			c-0.709,0.665,0,10.296,1.067,11.956c1.066,1.662,15.998,3.82,17.776,3.986c1.778,0.165,5.511-0.997,5.511-0.997
			s28.976-1.992,30.131-2.075c1.155-0.083,4.355,4.068,4.355,4.068s84.696,1.329,86.118,0c1.423-1.329,5.866-0.165,5.866-0.165
			s28.689-5.102,32.354-2.301c1.954,1.495,18.146-3.202,19.777-3.354c1.777-0.168,1.554-0.49,3.864-2.982
			C233.9,99.953,236.228,92.314,235.873,91.651z M197.791,53.989c-4.811-0.354-10.388-0.685-16.352-0.965
			c-0.632-0.896-1.241-1.701-1.782-2.385c7.298,0.331,13.424,0.81,16.573,1.439C196.61,52.52,197.158,53.179,197.791,53.989z
			 M127.527,52.879c1.49-0.938,2.689-1.654,3.081-1.795c3.165-1.085,26.962-1.278,45.503-0.591c0.439,0.509,1.129,1.333,1.93,2.38
			C160.747,52.144,140.96,51.896,127.527,52.879z"/>
	</g>
</g>
<g id="Layer_9" display="none">
	<g display="inline">
		<path d="M238.295,89.917c-0.502-0.75-3.178-2.064-3.178-3.756c0-1.689,1.816-11.822,0.333-16.15
			c-0.974-2.842-14.249-12.931-25.648-18.638c2.034-2.16,3.546-2.964,3.546-2.964l-1.004-1.501c-2.527-0.947-7.78-0.54-12.327,0.068
			c-2.069-0.8-3.906-1.406-5.387-1.754c-10.372-2.44-67.756-3.191-81.139,3.193c-13.383,6.385-23.086,11.268-35.466,19.532
			c0,0-45.17,2.627-52.532,10.138c-1.856,1.897-4.182,17.092-3.848,18.97c0.335,1.878,0.502,6.011,0.67,7.137
			c0.167,1.127,8.364,4.695,9.202,4.695c0.836,0,8.532-0.94,9.703-0.564c1.171,0.376,4.35,1.315,6.023,1.503
			c1.673,0.188,10.874,0.563,10.874,0.563l18.069-0.563c0,0,3.513,1.692,4.015,1.692c0.501,0,3.848-0.94,3.848-0.94h86.158
			c0,0,3.179-0.562,5.855,0.94l25.43-1.692c0,0,3.345-2.819,5.855-2.442c2.509,0.377,1.338,2.63,1.338,2.63s17.9-4.132,19.239-4.132
			c1.338,0,9.202-5.072,10.205-6.572C239.131,97.805,238.798,90.669,238.295,89.917z"/>
		<circle cx="59.884" cy="106.767" r="16.29"/>
		<circle cx="192.103" cy="107.15" r="16.289"/>
	</g>
</g>
<g id="Layer_7" display="none">
	<g display="inline">
		<circle cx="57.091" cy="108.144" r="15.08"/>
		<circle cx="190.584" cy="108.363" r="15.079"/>
		<path d="M202.575,63.559c5.162,0.356,25.671,5.573,26.408,6.287s3.801,14.567,3.801,18.495c0,0,3.985,0.893,4.354,1.606
			c0.37,0.715,0.554,13.354-1.29,15.141c-1.845,1.785-21.822,4.803-29.566,4.803s-27.473,2.857-27.473,2.857
			s-96.667,1.182-100.907,1.539c-4.241,0.356-9.772-2.433-9.772-2.433H43.974c0,0-3.319,1.071-4.242,1.962
			c-0.921,0.893-13.415-1.604-14.706-3.033c-1.291-1.429-3.605-25.414-0.369-29.943c4.372-6.119,47.572-14.103,62.509-14.282
			c4.057-3.571,24.216-18.434,32.659-20.195c12.103-2.525,54.593-1.77,57.707-0.732C184.209,47.856,196.332,58.581,202.575,63.559z"
			/>
	</g>
</g>
<g id="Layer_6" display="none">
	<g display="inline">
		<circle cx="60.939" cy="108.146" r="15.076"/>
		<circle cx="188.485" cy="108.365" r="15.077"/>
		<path d="M207.285,70.804c4.9,0.341,18.549,1.024,19.248,1.708c0.702,0.684,2.101,11.101,2.101,14.858c0,0,2.275,0.854,2.625,1.537
			c0.35,0.682,0.525,14.174-1.225,15.883c-1.75,1.708-19.598,5.295-26.947,5.295s-26.072,2.733-26.072,2.733
			s-91.73,1.131-95.756,1.472c-4.024,0.343-9.274-2.326-9.274-2.326H49.063c0,0-3.149,1.025-4.024,1.879
			c-0.875,0.853-12.731-1.537-13.956-2.905c-1.225-1.364-4.024-16.053-0.35-22.2c3.674-6.148,45.145-13.493,59.318-13.665
			c3.85-3.415,24.6-16.474,37.096-19.319c4.064-0.924,43.22-2.22,49.52,0C182.964,57.973,201.362,66.041,207.285,70.804z"/>
	</g>
</g>
<g id="Layer_5" display="none">
	<g display="inline">
		<circle cx="75.242" cy="108.054" r="15.387"/>
		<circle cx="188.39" cy="105.478" r="15.386"/>
		<path d="M46.909,95.638c-1.062,1.272,0,16.98,0.85,18.041c0.849,1.061,16.554,1.061,18.463,1.485
			c1.91,0.424,18.677-0.85,20.375-1.063c1.698-0.211,4.245-0.636,6.367,0c2.123,0.638,76.338,0.849,77.613,0
			c1.273-0.848,6.791-3.607,9.337-3.607c2.547,0,19.526,1.274,19.526,1.274s11.671-2.335,12.946-4.033
			c1.273-1.697,2.122-15.068,1.06-16.554c-1.06-1.486-4.668-3.184-4.668-3.184s-2.925-14.269-7.005-15.318
			c-4.485-9.391-6.581-10.958-7.932-14.028c-0.284-0.646-0.525-1.991-0.77-2.224c-0.243-0.233-1.245-0.006-3.882-0.138
			c-3.496-0.177-11.064-0.577-19.808-1.485c-6.438-0.669-31.639-3.734-44.584-0.127c-12.946,3.608-38.415,18.678-40.96,20.8
			c0,0-22.285,3.818-26.317,7.64c-4.032,3.82-7.215,10.823-7.428,11.885L46.909,95.638z"/>
	</g>
</g>
<g id="Layer_4" display="none">
	<g display="inline">
		<circle cx="189.433" cy="108.752" r="14.689"/>
		<path d="M94.3,75.175c-25.144,1.06-35.728,3.29-38.653,10.633c-0.49,1.232-1.34,2.468-1.655,3.767
			c-0.283,1.167-0.342,2.37-0.44,3.565c-0.07,0.85-0.052,1.742-0.771,2.295c-0.583,0.447-1.321,0.832-1.321,1.705
			c0,1.504,0.255,11.58,1.746,13.375c0.43,0.517,5.712,3.342,7.457,3.342s11.266-2.007,16.026-2.007
			c4.76,0,14.597,3.178,17.453,3.178h78.654c0,0,24.752-3.678,26.181-5.351c1.428-1.672,4.282,0.502,4.918,0.502
			c0.635,0,3.174,0,3.174,0l1.745-4.181c0,0,0.476-11.199-0.476-11.867c-0.952-0.669-3.648-2.676-3.648-2.676
			s1.269-16.549-5.713-17.217c0,0-4.747-7.719-11.498-15.084c0,0,1.053-3.792-7.923-6.309c-5.727-1.606-52.048-1.67-56.99-0.4
			c-5.316,1.367-8.884,4.695-8.432,5.578C114.134,58.022,103.502,64.812,94.3,75.175z"/>
		<circle cx="79.095" cy="108.752" r="14.689"/>
	</g>
</g>
<g id="Layer_3" display="none">
	<g display="inline">
		<circle cx="85.869" cy="109.776" r="13.665"/>
		<circle cx="177.641" cy="108.618" r="13.666"/>
		<path d="M188.194,84.827c0,0,1.881,1.043,2.735,2.262s3.247,18.279,1.881,19.846c-1.369,1.566-11.113,16.099-26.67,5.873
			c0,0-51.629-0.65-71.29,1.787c0,0-18.977,0.174-20.345,0.174c-1.367,0-4.787,0.522-5.47-1.218
			c-0.685-1.742-3.933-10.272,0.17-16.888c0,0-1.196-7.485,0.854-10.443c2.052-2.961,11.625-10.62,13.677-10.969
			c2.051-0.348,7.69-1.259,7.69-1.259S114,54.148,123.913,49.835c13.691-5.958,48.291-1.373,51.398-1.31
			c2.616,0.051,3.874-0.547,4.152-0.073c0.791,1.34-1.767,2.606-2.302,3.535c-0.292,0.507-0.037,0.946,0.312,1.398
			C186.602,65.24,188.022,83.955,188.194,84.827z"/>
	</g>
</g>
</svg>
